<svg width="20" height="20" viewBox="0 0 20 20" fill="none" xmlns="http://www.w3.org/2000/svg">
<path d="M6.73125 14.6687L10.0021 17.9999M10.0021 17.9999L13.2729 14.6687M10.0021 17.9999V10.5047M17.2633 15.5764C17.9742 15.0673 18.5073 14.3407 18.7853 13.5021C19.0632 12.6635 19.0715 11.7564 18.8091 10.9127C18.5466 10.0689 18.0269 9.33223 17.3255 8.80963C16.6241 8.28703 15.7774 8.00565 14.9083 8.00635H13.878C13.632 7.03021 13.1719 6.12361 12.5321 5.3548C11.8924 4.58599 11.0897 3.97501 10.1846 3.56785C9.27944 3.16069 8.29539 2.96796 7.30653 3.00418C6.31767 3.0404 5.34976 3.30462 4.47566 3.77694C3.60157 4.24926 2.84408 4.91739 2.26021 5.73101C1.67634 6.54463 1.2813 7.48256 1.10485 8.47417C0.928399 9.46578 0.975122 10.4852 1.24151 11.4558C1.50789 12.4264 1.98699 13.3227 2.64274 14.0774" stroke="#424242" stroke-linecap="round" stroke-linejoin="round"/>
</svg>
