<svg width="64" height="49" viewBox="0 0 64 49" fill="none" xmlns="http://www.w3.org/2000/svg">
<path d="M57.2 12.4C57.2 17.0392 45.9176 20.8 32 20.8C18.0824 20.8 6.79999 17.0392 6.79999 12.4M57.2 12.4C57.2 7.76081 45.9176 4 32 4C18.0824 4 6.79999 7.76081 6.79999 12.4M57.2 12.4V51.6C57.2 56.248 46 60 32 60C18 60 6.79999 56.248 6.79999 51.6V12.4M57.2 32C57.2 36.648 46 40.4 32 40.4C18 40.4 6.79999 36.648 6.79999 32" stroke="#F0F2F4" stroke-width="3" stroke-linecap="round" stroke-linejoin="round"/>
</svg>
