<svg width="18" height="16" viewBox="0 0 18 16" fill="none" xmlns="http://www.w3.org/2000/svg">
<path d="M0.888889 0H16.8889C17.1246 0 17.3507 0.0936505 17.5174 0.260349C17.6841 0.427049 17.7778 0.653141 17.7778 0.888889V15.1111C17.7778 15.3469 17.6841 15.573 17.5174 15.7397C17.3507 15.9064 17.1246 16 16.8889 16H0.888889C0.653141 16 0.427049 15.9064 0.26035 15.7397C0.0936505 15.573 0 15.3469 0 15.1111V0.888889C0 0.653141 0.0936505 0.427049 0.26035 0.260349C0.427049 0.0936505 0.653141 0 0.888889 0ZM8.94222 7.71822L3.24267 2.87822L2.09156 4.23289L8.95378 10.0596L15.6924 4.22844L14.5298 2.88356L8.94222 7.71822Z" fill="#F26135"/>
</svg>
