<svg width="24" height="24" viewBox="0 0 24 24" fill="none" xmlns="http://www.w3.org/2000/svg">
<path d="M2.10001 5.4L5.40001 1H18.6L21.9 5.4M2.10001 5.4V20.8C2.10001 21.3835 2.33179 21.9431 2.74437 22.3556C3.15695 22.7682 3.71653 23 4.30001 23H19.7C20.2835 23 20.8431 22.7682 21.2556 22.3556C21.6682 21.9431 21.9 21.3835 21.9 20.8V5.4M2.10001 5.4H21.9M16.4 9.8C16.4 10.967 15.9364 12.0861 15.1113 12.9113C14.2861 13.7364 13.167 14.2 12 14.2C10.8331 14.2 9.7139 13.7364 8.88874 12.9113C8.06358 12.0861 7.60001 10.967 7.60001 9.8" stroke="#424242" stroke-linecap="round" stroke-linejoin="round"/>
</svg>
