<svg width="40" height="40" viewBox="0 0 40 40" xmlns="http://www.w3.org/2000/svg">
<path d="M19.9694 38C9.89446 37.816 1.93892 29.9353 2.00035 19.9082C2.06179 9.72771 10.1709 1.93903 20.123 2.00036C30.1365 2.06169 38.0306 10.0037 37.9999 20.0002C37.9999 30.1193 29.9829 37.8773 19.9694 38ZM20.0616 3.5029C10.9081 3.65622 3.56689 10.709 3.56689 19.9695C3.56689 29.1074 10.7238 36.3135 19.908 36.4055C28.9693 36.4668 36.4334 29.4447 36.4641 20.0615C36.5255 10.8929 29.3072 3.71755 20.0616 3.5029ZM12.3518 20.5521C12.321 22.8519 12.7204 24.9371 13.3654 26.9916C15.362 26.7769 17.2049 26.593 19.1401 26.3783C19.1401 24.3851 19.1401 22.484 19.1401 20.5521C16.8363 20.5521 14.6248 20.5521 12.3518 20.5521ZM26.6656 26.9916C27.2492 24.8451 27.8021 22.7293 27.6485 20.5215C25.2833 20.5215 23.1332 20.5215 20.8909 20.5215C20.8909 22.4533 20.8909 24.3545 20.8909 26.3783C22.8568 26.5623 24.7305 26.7769 26.6656 26.9916ZM10.6316 20.5521C9.24941 20.2762 6.36207 20.3375 5.22557 20.6441C5.25629 23.4652 6.26993 25.949 7.86718 28.2795C9.18798 27.9115 10.4473 27.5742 11.6453 27.2676C11.2767 24.9678 10.9695 22.7599 10.6316 20.5521ZM28.3857 27.2676C29.6144 27.6049 30.8737 27.9422 32.1638 28.2795C33.7303 25.8877 34.8361 23.4039 34.7747 20.4295C32.8396 20.3988 31.0887 20.3681 29.4301 20.4295C29.0615 22.8213 28.7236 24.9984 28.3857 27.2676ZM29.3993 18.8349C31.1809 18.8349 32.9317 18.8349 34.8054 18.8349C34.8054 16.1058 33.9454 13.806 32.5017 11.5982C31.1195 11.9662 29.8601 12.3035 28.5393 12.6715C28.8157 14.8179 29.0922 16.8111 29.3993 18.8349ZM9.49514 12.1502C8.81938 11.9662 8.14362 11.8129 7.56001 11.6289C5.8399 14.1127 5.01056 17.0258 5.44058 18.8656C7.19142 18.8349 8.97296 19.0189 10.6316 18.8043C10.9388 16.6578 11.2153 14.6953 11.4917 12.6408C10.8774 12.5181 10.1709 12.3342 9.49514 12.1502ZM27.6792 18.8043C27.7714 16.7498 27.3413 14.8486 26.8499 13.0088C24.6997 13.2234 22.7646 13.4381 20.8909 13.6527C20.8909 15.4619 20.8909 17.1178 20.8909 18.8043C23.1946 18.8043 25.4062 18.8043 27.6792 18.8043ZM12.4746 18.8043C14.6862 18.8043 16.8978 18.8043 19.2015 18.8043C19.1708 17.0258 19.2937 15.3392 19.1094 13.622C17.0821 13.4074 15.1777 13.2234 13.304 13.0394C12.6282 14.6033 12.2596 17.1178 12.4746 18.8043ZM19.2015 12.0582C19.2322 9.60505 19.3244 7.30525 19.2015 4.82146C15.9456 6.01736 14.7476 8.59314 13.4883 11.5369C15.5463 11.7209 17.2971 11.8742 19.2015 12.0582ZM20.8909 11.9969C22.826 11.9049 24.5769 11.7822 26.4506 11.4142C25.2526 8.59314 24.0547 5.98669 20.7988 4.82146C20.8602 7.39724 20.7373 9.66638 20.8909 11.9969ZM20.8602 34.4736C23.809 33.4924 25.0376 31.1619 26.2048 28.4635C24.3619 28.2795 22.6417 28.1262 20.8602 27.9422C20.8602 30.1807 20.8602 32.2352 20.8602 34.4736ZM19.1094 27.9115C17.3585 28.2488 15.6077 28.0648 13.8261 28.6168C15.0241 31.1006 16.1606 33.4617 19.1401 34.4736C19.2629 32.1738 19.3858 30.1193 19.1094 27.9115ZM25.2526 5.86404C26.2048 7.58122 27.1263 9.26775 28.1707 11.1689C29.1843 10.9236 30.2594 10.6476 31.6109 10.3103C30.843 9.54373 30.2901 8.86912 29.6451 8.34783C28.2935 7.30525 26.9727 6.17068 25.1912 5.8947L25.2526 5.86404ZM14.8091 5.8947C12.1982 6.50798 10.3245 8.19451 8.42007 10.2797C9.80231 10.5556 10.8467 11.1996 11.9217 11.0156C12.9354 9.17576 13.8569 7.5199 14.7784 5.86404L14.8091 5.8947ZM14.7784 33.4924C13.9183 31.9592 13.0582 30.4566 12.1367 28.8008C11.1231 29.0461 10.1095 29.3221 8.81938 29.6287C9.49514 30.242 9.95589 30.7326 10.4781 31.1312C11.7989 32.1125 13.089 33.2164 14.8091 33.4617L14.7784 33.4924ZM25.2219 33.4311C27.6178 32.8791 29.3993 31.3766 31.1502 29.5674C29.8601 29.3527 28.8772 28.7394 27.8328 28.9234C26.942 30.518 26.082 31.9898 25.2526 33.4924L25.2219 33.4311ZM14.8091 5.8947C14.8398 5.83337 14.9012 5.77204 14.9012 5.77204C14.9012 5.77204 14.8398 5.80271 14.7784 5.86404L14.8091 5.8947ZM25.2526 5.86404C25.1912 5.83337 25.1298 5.77204 25.1298 5.77204C25.1298 5.77204 25.1605 5.83337 25.2219 5.8947L25.2526 5.86404ZM14.7784 33.4924C14.8398 33.523 14.9012 33.5844 14.9012 33.5844C14.9012 33.5844 14.8705 33.523 14.8091 33.4617L14.7784 33.4924ZM25.2219 33.4311C25.1912 33.4924 25.1605 33.5537 25.1298 33.5537C25.1298 33.5537 25.1912 33.523 25.2526 33.4617C25.2526 33.4924 25.2219 33.4311 25.2219 33.4311Z" />
</svg>
