<svg width="40" height="40" viewBox="0 0 40 40" xmlns="http://www.w3.org/2000/svg">
<g clip-path="url(#clip0_5758_17322)">
<path d="M15.5985 27.0923C15.5985 26.9034 15.5985 26.7535 15.5985 26.6036C15.5985 21.4562 15.5985 16.3088 15.5985 11.1614C15.5985 11.0311 15.6047 10.9008 15.5923 10.7704C15.5551 10.3339 15.3197 10.0537 14.8984 10.0537C13.3497 10.0407 11.801 10.0407 10.2523 10.0537C9.78152 10.0602 9.5709 10.3534 9.5709 10.9008C9.5709 16.1459 9.5709 21.3911 9.5709 26.6362C9.5709 26.773 9.5709 26.9099 9.5709 27.0858C8.80893 27.0858 8.07794 27.1119 7.34695 27.0793C5.68055 27.0141 4.16901 26.4603 2.86809 25.3591C1.26363 23.9973 0.315826 22.2381 0.0618382 20.0749C-0.377994 16.3674 1.69108 13.0118 4.73274 11.7413C4.93717 11.6566 5.0177 11.5523 5.01151 11.3112C4.91858 8.00778 7.14872 5.04312 10.2957 4.35246C11.7453 4.03319 13.1453 4.21563 14.4834 4.88023C14.7002 4.98448 14.7993 4.9519 14.9356 4.75643C16.7755 2.14363 19.2286 0.553792 22.2889 0.110723C28.0996 -0.723289 33.1732 3.20569 34.4803 8.80269C34.5484 9.0959 34.6352 9.39562 34.6476 9.69535C34.6599 10.0276 34.8148 10.1514 35.075 10.2752C36.5618 10.9789 37.7512 12.054 38.6494 13.494C41.8831 18.6805 39.0397 25.7436 33.2537 26.9034C32.69 27.0141 32.1077 27.0728 31.5316 27.0858C30.3545 27.1119 29.1775 27.0858 28.0005 27.0988C27.7403 27.0988 27.6474 27.0402 27.6474 26.7405C27.6598 23.0721 27.6536 19.3973 27.6474 15.7289C27.6474 15.4618 27.7217 15.3705 27.9819 15.3771C29.0784 15.3901 30.1687 15.3836 31.2652 15.3836C31.8909 15.3836 32.0519 15.2142 32.0519 14.5561C32.0519 13.2985 32.0519 12.0345 32.0519 10.777C32.0519 10.2687 31.8785 10.0798 31.4077 10.0798C26.935 10.0798 22.4685 10.0798 17.9959 10.0798C17.5189 10.0798 17.333 10.2883 17.3268 10.7965C17.3268 12.0671 17.3268 13.3376 17.3268 14.6082C17.3268 15.1685 17.5189 15.3771 18.0516 15.3836C19.1357 15.3901 20.2198 15.3966 21.3039 15.3771C21.5827 15.3705 21.6508 15.4683 21.6508 15.7484C21.6446 19.4103 21.6446 23.0656 21.6508 26.7274C21.6508 27.0011 21.5889 27.0988 21.3101 27.0988C19.526 27.0858 17.7357 27.0923 15.9516 27.0923C15.8525 27.0923 15.7595 27.0923 15.5985 27.0923ZM14.5206 37.1135C14.5763 37.1135 14.6754 37.2959 14.6754 37.3937C14.6878 38.0908 14.694 38.7815 14.6816 39.4787C14.6754 39.7784 14.7869 39.8827 15.0657 39.8762C15.5427 39.8631 16.0135 39.8631 16.4905 39.8762C16.7259 39.8827 16.825 39.7719 16.825 39.5243C16.825 37.2699 16.825 35.0089 16.825 32.7545C16.825 32.5069 16.7259 32.4026 16.4905 32.4091C16.0135 32.4157 15.5427 32.4222 15.0657 32.4091C14.7869 32.4026 14.6754 32.5069 14.6816 32.8066C14.694 33.4712 14.6754 34.1293 14.6878 34.7939C14.694 35.0545 14.5949 35.1327 14.3657 35.1327C13.9197 35.1197 13.4798 35.1327 13.0338 35.1262C12.8727 35.1262 12.7179 35.1066 12.5382 35.1001C12.5382 34.9372 12.5382 34.8134 12.5382 34.6962C12.5382 34.0641 12.5382 33.4386 12.5382 32.8066C12.5382 32.546 12.4515 32.4026 12.1789 32.4091C11.6957 32.4222 11.2063 32.4222 10.7231 32.4091C10.4815 32.4026 10.3886 32.5199 10.3886 32.761C10.3886 35.0154 10.3886 37.2764 10.3886 39.5308C10.3886 39.7719 10.4815 39.8827 10.7231 39.8827C11.1754 39.8696 11.6338 39.8827 12.086 39.8762C12.5011 39.8762 12.5382 39.8371 12.5382 39.3875C12.5382 38.6512 12.5382 37.9149 12.5382 37.1135C13.2258 37.1005 13.8701 37.0939 14.5206 37.1135ZM3.48138 37.6022C3.01677 37.6022 2.95482 37.6869 3.07872 38.156C3.29554 38.99 3.86546 39.4591 4.60265 39.7263C5.42656 40.0325 6.28144 40.0586 7.13633 39.9022C7.84254 39.7719 8.47441 39.4917 8.97619 38.9183C9.64524 38.156 9.75674 36.3251 8.32574 35.7322C7.89829 35.5562 7.43988 35.4585 6.99385 35.3347C6.56641 35.2174 6.12657 35.1327 5.71152 34.9763C5.58143 34.9307 5.45753 34.7157 5.43895 34.5658C5.42036 34.4486 5.53807 34.2531 5.64338 34.1749C6.00268 33.9208 6.61597 34.0576 6.92571 34.3834C7.04341 34.5072 7.23545 34.618 7.39651 34.6245C7.8921 34.6571 8.38769 34.644 8.88327 34.631C9.16823 34.6245 9.28594 34.4877 9.16823 34.214C9.00097 33.8361 8.81513 33.4517 8.54256 33.1584C8.0098 32.5786 7.30359 32.3635 6.55402 32.2984C5.64957 32.2202 4.78849 32.3635 4.02033 32.9304C2.89907 33.7644 2.83712 35.8755 4.38583 36.514C4.82566 36.6965 5.29027 36.7942 5.74869 36.9245C6.14516 37.0418 6.54782 37.12 6.9381 37.2634C7.06199 37.309 7.19828 37.5044 7.21686 37.6413C7.22925 37.7585 7.11155 37.9475 7.00004 38.0257C6.59738 38.3189 5.70533 38.2537 5.3708 37.8954C5.1354 37.6413 4.88141 37.5631 4.56548 37.5891C4.39822 37.6022 4.23715 37.5891 4.06989 37.5891C3.87785 37.6022 3.67962 37.6022 3.48138 37.6022ZM20.2198 34.5202C20.1888 34.2205 20.3189 34.1554 20.5729 34.1554C21.4712 34.1684 22.3694 34.1554 23.2677 34.1619C23.5402 34.1619 23.6641 34.0576 23.6579 33.7579C23.6455 33.4191 23.6517 33.0868 23.6579 32.748C23.6641 32.5069 23.565 32.3961 23.3234 32.3961C21.7128 32.4026 20.1021 32.4026 18.4914 32.3961C18.256 32.3961 18.1569 32.5004 18.1569 32.748C18.1569 35.0089 18.1569 37.2633 18.1569 39.5243C18.1569 39.7524 18.2375 39.8696 18.4667 39.8696C20.1207 39.8696 21.7685 39.8696 23.4225 39.8696C23.6579 39.8696 23.7571 39.7524 23.7571 39.5113C23.7571 39.1985 23.7571 38.8793 23.7571 38.5665C23.7571 38.1756 23.7013 38.1169 23.3234 38.1104C22.4376 38.1039 21.5455 38.1104 20.6596 38.1104C20.5295 38.1104 20.3933 38.0908 20.2322 38.0843C20.2322 37.8042 20.2508 37.5435 20.226 37.2894C20.2012 37.0092 20.3127 36.9376 20.5605 36.9441C21.3968 36.9571 22.2331 36.9441 23.0694 36.9506C23.3544 36.9571 23.4597 36.8333 23.4473 36.5401C23.4349 36.2469 23.4411 35.9537 23.4473 35.6605C23.4535 35.3999 23.3234 35.2826 23.088 35.2826C22.9455 35.2826 22.7969 35.2826 22.6544 35.2826C21.8614 35.2826 21.0685 35.2826 20.226 35.2826C20.226 34.9894 20.2446 34.7548 20.2198 34.5202ZM27.3315 37.3806C28.1058 37.3806 28.8802 37.3806 29.6545 37.3806C29.9952 37.3806 30.0696 37.2894 30.0758 36.9376C30.0758 36.6248 30.0758 36.3055 30.0758 35.9928C30.0758 35.5693 30.0386 35.5302 29.6297 35.5237C28.8368 35.5237 28.0377 35.5302 27.2447 35.5171C27.1456 35.5171 26.9722 35.4259 26.966 35.3608C26.9412 35.0089 26.9536 34.6505 26.9536 34.2661C27.1208 34.2661 27.2447 34.2661 27.3686 34.2661C28.2173 34.2661 29.0598 34.2596 29.9085 34.2661C30.1501 34.2661 30.274 34.1749 30.2678 33.9012C30.2616 33.5233 30.2616 33.1389 30.2678 32.761C30.274 32.5199 30.1873 32.4026 29.9457 32.4026C28.3536 32.4091 26.7677 32.4091 25.1757 32.4026C24.9403 32.4026 24.8473 32.5134 24.8473 32.761C24.8473 35.0089 24.8535 37.2568 24.8473 39.5048C24.8473 39.7654 24.9403 39.8827 25.1943 39.8762C25.6713 39.8631 26.1421 39.8631 26.6191 39.8762C26.8669 39.8827 26.9474 39.7654 26.9474 39.5243C26.9474 38.9574 26.9474 38.3971 26.9474 37.8302C26.9474 37.6934 26.966 37.5566 26.9722 37.3806C27.1085 37.3806 27.22 37.3806 27.3315 37.3806ZM31.3271 39.4657C31.3271 39.7458 31.4077 39.8827 31.6988 39.8762C32.1634 39.8566 32.628 39.8631 33.0927 39.8762C33.3281 39.8827 33.4272 39.7719 33.421 39.5243C33.4148 38.9574 33.421 38.3971 33.421 37.8302C33.421 37.3806 33.421 37.3806 33.8298 37.3806C34.5918 37.3806 35.36 37.3741 36.1219 37.3806C36.4007 37.3806 36.5494 37.2829 36.5308 36.9636C36.5122 36.6378 36.5308 36.3121 36.5246 35.9863C36.5246 35.5432 36.506 35.5237 36.091 35.5171C35.298 35.5171 34.4989 35.5106 33.7059 35.5171C33.5015 35.5171 33.3962 35.4585 33.4148 35.2174C33.4272 35.0024 33.4272 34.7809 33.4148 34.5658C33.3962 34.3248 33.4891 34.2466 33.7183 34.2531C34.598 34.2661 35.4715 34.2466 36.3511 34.2596C36.6485 34.2661 36.76 34.1293 36.7538 33.8296C36.7476 33.4908 36.7476 33.1585 36.7538 32.8196C36.76 32.5264 36.6609 32.3896 36.3573 32.3896C34.8086 32.4026 33.2599 32.4026 31.7112 32.3896C31.4015 32.3896 31.3147 32.5134 31.3209 32.8131C31.3271 33.9078 31.3271 35.0024 31.3271 36.1036C31.3333 37.2308 31.3333 38.345 31.3271 39.4657Z" />
</g>
<defs>
<clipPath id="clip0_5758_17322">
<rect width="40" height="40" fill="white"/>
</clipPath>
</defs>
</svg>
