<svg width="24" height="24" viewBox="0 0 24 24" fill="none" xmlns="http://www.w3.org/2000/svg">
<path d="M13.6497 1.00549V8.95745C13.6497 9.21596 13.8556 9.42553 14.1096 9.42553H21.9284V20.1302C21.9283 20.897 21.6212 21.6286 21.0804 22.1653C20.5401 22.7015 19.8107 23 19.0539 23H5.94585C5.18901 23 4.45963 22.7015 3.91929 22.1653C3.37856 21.6286 3.07138 20.897 3.07129 20.1302V3.86976C3.07138 3.10299 3.37856 2.3714 3.91929 1.83469C4.45963 1.29847 5.18901 1 5.94585 1H13.5922C13.6115 1 13.6306 1.00385 13.6497 1.00549Z" fill="#424242"/>
<path d="M21.42 8.48936H14.5695V1.69116L21.42 8.48936Z" fill="#424242"/>
</svg>
