<svg width="24" height="24" viewBox="0 0 24 24" fill="none" xmlns="http://www.w3.org/2000/svg">
<path d="M21.9001 4.3C21.9001 6.12254 17.4677 7.6 12.0001 7.6C6.53248 7.6 2.1001 6.12254 2.1001 4.3M21.9001 4.3C21.9001 2.47746 17.4677 1 12.0001 1C6.53248 1 2.1001 2.47746 2.1001 4.3M21.9001 4.3V19.7C21.9001 21.526 17.5001 23 12.0001 23C6.5001 23 2.1001 21.526 2.1001 19.7V4.3M21.9001 12C21.9001 13.826 17.5001 15.3 12.0001 15.3C6.5001 15.3 2.1001 13.826 2.1001 12" stroke="#424242" stroke-linecap="round" stroke-linejoin="round"/>
</svg>
