<svg width="24" height="24" viewBox="0 0 24 24" fill="none" xmlns="http://www.w3.org/2000/svg">
<path d="M2.1001 5.4L5.4001 1H18.6001L21.9001 5.4M2.1001 5.4V20.8C2.1001 21.3835 2.33188 21.9431 2.74446 22.3556C3.15704 22.7682 3.71662 23 4.3001 23H19.7001C20.2836 23 20.8432 22.7682 21.2557 22.3556C21.6683 21.9431 21.9001 21.3835 21.9001 20.8V5.4M2.1001 5.4H21.9001M16.4001 9.8C16.4001 10.967 15.9365 12.0861 15.1114 12.9113C14.2862 13.7364 13.167 14.2 12.0001 14.2C10.8331 14.2 9.71399 13.7364 8.88883 12.9113C8.06367 12.0861 7.6001 10.967 7.6001 9.8" stroke="#424242" stroke-linecap="round" stroke-linejoin="round"/>
</svg>
