<svg width="28" height="28" viewBox="0 0 28 28"  xmlns="http://www.w3.org/2000/svg">
<path d="M14.4333 7.4039L14.7869 7.05035C14.6931 6.95658 14.5659 6.9039 14.4333 6.9039C14.3007 6.9039 14.1735 6.95658 14.0798 7.05035L14.4333 7.4039ZM14.4333 20.4039L14.0798 20.7575C14.1735 20.8512 14.3007 20.9039 14.4333 20.9039C14.5659 20.9039 14.6931 20.8512 14.7869 20.7575L14.4333 20.4039ZM10.5333 11.3039L10.8869 11.6575L14.7869 7.75745L14.4333 7.4039L14.0798 7.05035L10.1798 10.9503L10.5333 11.3039ZM14.4333 7.4039L14.0798 7.75745L17.9798 11.6575L18.3333 11.3039L18.6869 10.9503L14.7869 7.05035L14.4333 7.4039ZM18.3333 16.5039L17.9798 16.1503L14.0798 20.0503L14.4333 20.4039L14.7869 20.7575L18.6869 16.8575L18.3333 16.5039ZM14.4333 20.4039L14.7869 20.0503L10.8869 16.1503L10.5333 16.5039L10.1798 16.8575L14.0798 20.7575L14.4333 20.4039ZM3.6 1V1.5H24.4V1V0.5H3.6V1ZM27 3.6H26.5V24.4H27H27.5V3.6H27ZM24.4 27V26.5H3.6V27V27.5H24.4V27ZM1 24.4H1.5V3.6H1H0.5V24.4H1ZM3.6 27V26.5C2.4402 26.5 1.5 25.5598 1.5 24.4H1H0.5C0.5 26.1121 1.88792 27.5 3.6 27.5V27ZM27 24.4H26.5C26.5 25.5598 25.5598 26.5 24.4 26.5V27V27.5C26.1121 27.5 27.5 26.1121 27.5 24.4H27ZM24.4 1V1.5C25.5598 1.5 26.5 2.4402 26.5 3.6H27H27.5C27.5 1.88792 26.1121 0.5 24.4 0.5V1ZM3.6 1V0.5C1.88792 0.5 0.5 1.88792 0.5 3.6H1H1.5C1.5 2.4402 2.4402 1.5 3.6 1.5V1Z" />
</svg>
