<svg width="20" height="20" viewBox="0 0 20 20" fill="none" xmlns="http://www.w3.org/2000/svg">
<g clip-path="url(#clip0_5223_7746)">
<rect width="20" height="20" rx="10" fill="#F0F2F4"/>
<path d="M8.74219 11.9512V11.5205C8.74219 11.1833 8.78092 10.8893 8.8584 10.6387C8.93587 10.388 9.06576 10.1533 9.24805 9.93457C9.43034 9.71126 9.67643 9.47884 9.98633 9.2373C10.3053 8.98665 10.5583 8.77018 10.7451 8.58789C10.9365 8.4056 11.0732 8.22331 11.1553 8.04102C11.2419 7.85417 11.2852 7.6377 11.2852 7.3916C11.2852 7.00423 11.153 6.71029 10.8887 6.50977C10.6289 6.30469 10.262 6.20215 9.78809 6.20215C9.36882 6.20215 8.97461 6.26139 8.60547 6.37988C8.23633 6.49837 7.87174 6.64648 7.51172 6.82422L6.94434 5.62109C7.35905 5.39323 7.80794 5.21094 8.29102 5.07422C8.77865 4.93294 9.31413 4.8623 9.89746 4.8623C10.8271 4.8623 11.5449 5.08789 12.0508 5.53906C12.5612 5.99023 12.8164 6.58496 12.8164 7.32324C12.8164 7.72884 12.7526 8.07747 12.625 8.36914C12.4974 8.65625 12.3083 8.92285 12.0576 9.16895C11.8115 9.41048 11.513 9.66569 11.1621 9.93457C10.875 10.1624 10.654 10.3607 10.499 10.5293C10.3486 10.6934 10.2438 10.8597 10.1846 11.0283C10.1299 11.1969 10.1025 11.3997 10.1025 11.6367V11.9512H8.74219ZM8.48242 14.1523C8.48242 13.7786 8.57812 13.5166 8.76953 13.3662C8.96549 13.2113 9.20475 13.1338 9.4873 13.1338C9.76074 13.1338 9.99544 13.2113 10.1914 13.3662C10.3874 13.5166 10.4854 13.7786 10.4854 14.1523C10.4854 14.5169 10.3874 14.7812 10.1914 14.9453C9.99544 15.1048 9.76074 15.1846 9.4873 15.1846C9.20475 15.1846 8.96549 15.1048 8.76953 14.9453C8.57812 14.7812 8.48242 14.5169 8.48242 14.1523Z" fill="#5C5C5C"/>
</g>
<defs>
<clipPath id="clip0_5223_7746">
<rect width="20" height="20" rx="10" fill="white"/>
</clipPath>
</defs>
</svg>
