<svg width="20" height="20" viewBox="0 0 20 20" fill="none" xmlns="http://www.w3.org/2000/svg">
<path d="M9.15659 3.42959H3.59035C3.16857 3.42959 2.76405 3.59715 2.4658 3.89539C2.16755 4.19364 2 4.59816 2 5.01994V16.1524C2 16.5742 2.16755 16.9787 2.4658 17.277C2.76405 17.5752 3.16857 17.7428 3.59035 17.7428H14.7228C15.1446 17.7428 15.5491 17.5752 15.8474 17.277C16.1456 16.9787 16.3132 16.5742 16.3132 16.1524V10.5862M14.2958 3.49406C14.6121 3.17772 15.0412 3 15.4885 3C15.9359 3 16.365 3.17772 16.6813 3.49406C16.9976 3.8104 17.1754 4.23945 17.1754 4.68682C17.1754 5.1342 16.9976 5.56325 16.6813 5.87959L9.12711 13.4338L5.94641 14.2289L6.74158 11.0482L14.2958 3.49406Z" stroke="#424242" stroke-linecap="round" stroke-linejoin="round"/>
</svg>
