<svg width="60" height="60" viewBox="0 0 60 60" fill="none" xmlns="http://www.w3.org/2000/svg">
<path d="M25.2082 41.7655L13.6364 30.1909L17.4927 26.3345L25.2082 34.0473L40.6336 18.6191L44.4927 22.4782L25.2082 41.7655Z" fill="#73BC38"/>
<path fill-rule="evenodd" clip-rule="evenodd" d="M0 30C0 13.4318 13.4318 0 30 0C46.5682 0 60 13.4318 60 30C60 46.5682 46.5682 60 30 60C13.4318 60 0 46.5682 0 30ZM30 54.5455C26.7766 54.5455 23.5849 53.9106 20.6069 52.677C17.6289 51.4435 14.923 49.6355 12.6437 47.3563C10.3645 45.077 8.55648 42.3711 7.32296 39.3931C6.08943 36.4151 5.45455 33.2234 5.45455 30C5.45455 26.7766 6.08943 23.5849 7.32296 20.6069C8.55648 17.6289 10.3645 14.923 12.6437 12.6437C14.923 10.3645 17.6289 8.55648 20.6069 7.32296C23.5849 6.08943 26.7766 5.45455 30 5.45455C36.5099 5.45455 42.7531 8.04058 47.3563 12.6437C51.9594 17.2469 54.5455 23.4901 54.5455 30C54.5455 36.5099 51.9594 42.7531 47.3563 47.3563C42.7531 51.9594 36.5099 54.5455 30 54.5455Z" fill="#73BC38"/>
</svg>
