<svg width="64" height="58" viewBox="0 0 64 58" fill="none" xmlns="http://www.w3.org/2000/svg">
<path d="M58.6975 54.3008L60.176 54.554L60.1781 54.5413L60.1801 54.5285L58.6975 54.3008ZM61.9205 33.3183L60.4396 33.0797L60.4379 33.0906L61.9205 33.3183ZM22.9423 31.4937L21.4639 31.2405L21.4617 31.253L21.4598 31.2655L22.9423 31.4937ZM43.8918 17.6068V19.1068H45.3918V17.6068H43.8918ZM43.8918 7.26762H45.3918V5.76762H43.8918V7.26762ZM46.5105 43.1507L47.9919 43.3862L47.9965 43.3573L48 43.3283L46.5105 43.1507ZM10.7574 57.0376L12.2194 57.3728L12.223 57.3573L12.2262 57.3417L10.7574 57.0376ZM11.261 54.6049L9.79626 54.2814L9.79413 54.2911L9.79212 54.3008L11.261 54.6049ZM13.1746 52.983V54.483H13.176L13.1746 52.983ZM3 60.4762H4.5V47.7121H3H1.5V60.4762H3ZM3 47.7121H4.5C4.5 43.0679 8.12287 38.7546 13.6569 36.8666L13.1726 35.447L12.6883 34.0273C6.33751 36.1939 1.5 41.4089 1.5 47.7121H3ZM22.2373 36.3592L21.7218 34.9506C20.8576 35.2668 19.8546 35.3661 18.7121 35.3661V36.8661V38.3661C19.9869 38.3661 21.4011 38.2625 22.7528 37.7679L22.2373 36.3592ZM18.7121 36.8661V35.3661C13.1958 35.3661 8.62947 30.8686 8.62947 25.2091H7.12947H5.62947C5.62947 32.5244 11.5379 38.3661 18.7121 38.3661V36.8661ZM7.12947 25.2091H8.62947V23.2832H7.12947H5.62947V25.2091H7.12947ZM7.12947 23.2832H8.62947C8.62947 17.7081 13.112 13.1263 18.7121 13.1263V11.6263V10.1263C11.4202 10.1263 5.62947 16.0864 5.62947 23.2832H7.12947ZM18.7121 11.6263V13.1263C24.3207 13.1263 28.7948 17.6153 28.7948 23.2832H30.2948H31.7948C31.7948 15.9765 25.9956 10.1263 18.7121 10.1263V11.6263ZM30.2948 23.2832H28.7948V25.2091H30.2948H31.7948V23.2832H30.2948ZM30.2948 25.2091H28.7948C28.7948 25.2097 28.7948 25.2103 28.7948 25.2109C28.7948 25.2115 28.7948 25.2121 28.7948 25.2127C28.7948 25.2133 28.7948 25.2139 28.7948 25.2145C28.7948 25.2151 28.7948 25.2157 28.7948 25.2163C28.7948 25.2169 28.7948 25.2175 28.7948 25.2181C28.7948 25.2186 28.7948 25.2192 28.7948 25.2198C28.7948 25.2204 28.7948 25.221 28.7948 25.2216C28.7948 25.2222 28.7948 25.2228 28.7948 25.2234C28.7948 25.224 28.7948 25.2246 28.7948 25.2252C28.7948 25.2258 28.7948 25.2264 28.7948 25.227C28.7948 25.2276 28.7948 25.2281 28.7948 25.2287C28.7948 25.2293 28.7948 25.2299 28.7948 25.2305C28.7948 25.2311 28.7948 25.2317 28.7948 25.2323C28.7948 25.2329 28.7948 25.2335 28.7948 25.2341C28.7948 25.2347 28.7948 25.2353 28.7948 25.2359C28.7948 25.2365 28.7948 25.2371 28.7948 25.2376C28.7948 25.2382 28.7948 25.2388 28.7948 25.2394C28.7948 25.24 28.7948 25.2406 28.7948 25.2412C28.7948 25.2418 28.7948 25.2424 28.7948 25.243C28.7948 25.2436 28.7948 25.2442 28.7948 25.2448C28.7948 25.2454 28.7948 25.246 28.7948 25.2466C28.7948 25.2472 28.7948 25.2477 28.7948 25.2483C28.7948 25.2489 28.7948 25.2495 28.7948 25.2501C28.7948 25.2507 28.7948 25.2513 28.7948 25.2519C28.7948 25.2525 28.7948 25.2531 28.7948 25.2537C28.7948 25.2543 28.7948 25.2549 28.7948 25.2555C28.7948 25.2561 28.7948 25.2567 28.7948 25.2572C28.7948 25.2578 28.7948 25.2584 28.7948 25.259C28.7948 25.2596 28.7948 25.2602 28.7948 25.2608C28.7948 25.2614 28.7948 25.262 28.7948 25.2626C28.7948 25.2632 28.7948 25.2638 28.7948 25.2644C28.7948 25.265 28.7948 25.2656 28.7948 25.2662C28.7948 25.2668 28.7948 25.2673 28.7948 25.2679C28.7948 25.2685 28.7948 25.2691 28.7948 25.2697C28.7948 25.2703 28.7948 25.2709 28.7948 25.2715C28.7948 25.2721 28.7948 25.2727 28.7948 25.2733C28.7948 25.2739 28.7948 25.2745 28.7948 25.2751C28.7948 25.2757 28.7948 25.2763 28.7948 25.2768C28.7948 25.2774 28.7948 25.278 28.7948 25.2786C28.7948 25.2792 28.7948 25.2798 28.7948 25.2804C28.7948 25.281 28.7948 25.2816 28.7948 25.2822C28.7948 25.2828 28.7948 25.2834 28.7948 25.284C28.7948 25.2846 28.7948 25.2852 28.7948 25.2858C28.7948 25.2864 28.7948 25.2869 28.7948 25.2875C28.7948 25.2881 28.7948 25.2887 28.7948 25.2893C28.7948 25.2899 28.7948 25.2905 28.7948 25.2911C28.7948 25.2917 28.7948 25.2923 28.7948 25.2929C28.7948 25.2935 28.7948 25.2941 28.7948 25.2947C28.7948 25.2953 28.7948 25.2959 28.7948 25.2964C28.7948 25.297 28.7948 25.2976 28.7948 25.2982C28.7948 25.2988 28.7948 25.2994 28.7948 25.3C28.7948 25.3006 28.7948 25.3012 28.7948 25.3018C28.7948 25.3024 28.7948 25.303 28.7948 25.3036C28.7948 25.3042 28.7948 25.3048 28.7948 25.3054C28.7948 25.306 28.7948 25.3065 28.7948 25.3071C28.7948 25.3077 28.7948 25.3083 28.7948 25.3089C28.7948 25.3095 28.7948 25.3101 28.7948 25.3107C28.7948 25.3113 28.7948 25.3119 28.7948 25.3125C28.7948 25.3131 28.7948 25.3137 28.7948 25.3143C28.7948 25.3149 28.7948 25.3155 28.7948 25.316C28.7948 25.3166 28.7948 25.3172 28.7948 25.3178C28.7948 25.3184 28.7948 25.319 28.7948 25.3196C28.7948 25.3202 28.7948 25.3208 28.7948 25.3214C28.7948 25.322 28.7948 25.3226 28.7948 25.3232C28.7948 25.3238 28.7948 25.3244 28.7948 25.325C28.7948 25.3256 28.7948 25.3261 28.7948 25.3267C28.7948 25.3273 28.7948 25.3279 28.7948 25.3285C28.7948 25.3291 28.7948 25.3297 28.7948 25.3303C28.7948 25.3309 28.7948 25.3315 28.7948 25.3321C28.7948 25.3327 28.7948 25.3333 28.7948 25.3339C28.7948 25.3345 28.7948 25.3351 28.7948 25.3356C28.7948 25.3362 28.7948 25.3368 28.7948 25.3374C28.7948 25.338 28.7948 25.3386 28.7948 25.3392C28.7948 25.3398 28.7948 25.3404 28.7948 25.341C28.7948 25.3416 28.7948 25.3422 28.7948 25.3428C28.7948 25.3434 28.7948 25.344 28.7948 25.3446C28.7948 25.3452 28.7948 25.3457 28.7948 25.3463C28.7948 25.3469 28.7948 25.3475 28.7948 25.3481C28.7948 25.3487 28.7948 25.3493 28.7948 25.3499C28.7948 25.3505 28.7948 25.3511 28.7948 25.3517C28.7948 25.3523 28.7948 25.3529 28.7948 25.3535C28.7948 25.3541 28.7948 25.3547 28.7948 25.3552C28.7948 25.3558 28.7948 25.3564 28.7948 25.357C28.7948 25.3576 28.7948 25.3582 28.7948 25.3588C28.7948 25.3594 28.7948 25.36 28.7948 25.3606C28.7948 25.3612 28.7948 25.3618 28.7948 25.3624C28.7948 25.363 28.7948 25.3636 28.7948 25.3642C28.7948 25.3648 28.7948 25.3653 28.7948 25.3659C28.7948 25.3665 28.7948 25.3671 28.7948 25.3677C28.7948 25.3683 28.7948 25.3689 28.7948 25.3695C28.7948 25.3701 28.7948 25.3707 28.7948 25.3713C28.7948 25.3719 28.7948 25.3725 28.7948 25.3731C28.7948 25.3737 28.7948 25.3743 28.7948 25.3748C28.7948 25.3754 28.7948 25.376 28.7948 25.3766C28.7948 25.3772 28.7948 25.3778 28.7948 25.3784C28.7948 25.379 28.7948 25.3796 28.7948 25.3802C28.7948 25.3808 28.7948 25.3814 28.7948 25.382C28.7948 25.3826 28.7948 25.3832 28.7948 25.3838C28.7948 25.3844 28.7948 25.3849 28.7948 25.3855C28.7948 25.3861 28.7948 25.3867 28.7948 25.3873C28.7948 25.3879 28.7948 25.3885 28.7948 25.3891C28.7948 25.3897 28.7948 25.3903 28.7948 25.3909C28.7948 25.3915 28.7948 25.3921 28.7948 25.3927C28.7948 25.3933 28.7948 25.3939 28.7948 25.3944C28.7948 25.395 28.7948 25.3956 28.7948 25.3962C28.7948 25.3968 28.7948 25.3974 28.7948 25.398C28.7948 25.3986 28.7948 25.3992 28.7948 25.3998C28.7948 25.4004 28.7948 25.401 28.7948 25.4016C28.7948 25.4022 28.7948 25.4028 28.7948 25.4034C28.7948 25.4039 28.7948 25.4045 28.7948 25.4051C28.7948 25.4057 28.7948 25.4063 28.7948 25.4069C28.7948 25.4075 28.7948 25.4081 28.7948 25.4087C28.7948 25.4093 28.7948 25.4099 28.7948 25.4105C28.7948 25.4111 28.7948 25.4117 28.7948 25.4123C28.7948 25.4129 28.7948 25.4135 28.7948 25.414C28.7948 25.4146 28.7948 25.4152 28.7948 25.4158C28.7948 25.4164 28.7948 25.417 28.7948 25.4176C28.7948 25.4182 28.7948 25.4188 28.7948 25.4194C28.7948 25.42 28.7948 25.4206 28.7948 25.4212C28.7948 25.4218 28.7948 25.4224 28.7948 25.423C28.7948 25.4235 28.7948 25.4241 28.7948 25.4247C28.7948 25.4253 28.7948 25.4259 28.7948 25.4265C28.7948 25.4271 28.7948 25.4277 28.7948 25.4283C28.7948 25.4289 28.7948 25.4295 28.7948 25.4301C28.7948 25.4307 28.7948 25.4313 28.7948 25.4319C28.7948 25.4325 28.7948 25.4331 28.7948 25.4336C28.7948 25.4342 28.7948 25.4348 28.7948 25.4354C28.7948 25.436 28.7948 25.4366 28.7948 25.4372C28.7948 25.4378 28.7948 25.4384 28.7948 25.439C28.7948 25.4396 28.7948 25.4402 28.7948 25.4408C28.7948 25.4414 28.7948 25.442 28.7948 25.4426C28.7948 25.4431 28.7948 25.4437 28.7948 25.4443C28.7948 25.4449 28.7948 25.4455 28.7948 25.4461C28.7948 25.4467 28.7948 25.4473 28.7948 25.4479C28.7948 25.4485 28.7948 25.4491 28.7948 25.4497C28.7948 25.4503 28.7948 25.4509 28.7948 25.4515C28.7948 25.4521 28.7948 25.4527 28.7948 25.4532C28.7948 25.4538 28.7948 25.4544 28.7948 25.455C28.7948 25.4556 28.7948 25.4562 28.7948 25.4568C28.7948 25.4574 28.7948 25.458 28.7948 25.4586C28.7948 25.4592 28.7948 25.4598 28.7948 25.4604C28.7948 25.461 28.7948 25.4616 28.7948 25.4622C28.7948 25.4627 28.7948 25.4633 28.7948 25.4639C28.7948 25.4645 28.7948 25.4651 28.7948 25.4657C28.7948 25.4663 28.7948 25.4669 28.7948 25.4675C28.7948 25.4681 28.7948 25.4687 28.7948 25.4693C28.7948 25.4699 28.7948 25.4705 28.7948 25.4711C28.7948 25.4717 28.7948 25.4723 28.7948 25.4728C28.7948 25.4734 28.7948 25.474 28.7948 25.4746C28.7948 25.4752 28.7948 25.4758 28.7948 25.4764C28.7948 25.477 28.7948 25.4776 28.7948 25.4782C28.7948 25.4788 28.7948 25.4794 28.7948 25.48C28.7948 25.4806 28.7948 25.4812 28.7948 25.4818C28.7948 25.4823 28.7948 25.4829 28.7948 25.4835C28.7948 25.4841 28.7948 25.4847 28.7948 25.4853C28.7948 25.4859 28.7948 25.4865 28.7948 25.4871C28.7948 25.4877 28.7948 25.4883 28.7948 25.4889C28.7948 25.4895 28.7948 25.4901 28.7948 25.4907C28.7948 25.4913 28.7948 25.4919 28.7948 25.4924C28.7948 25.493 28.7948 25.4936 28.7948 25.4942C28.7948 25.4948 28.7948 25.4954 28.7948 25.496C28.7948 25.4966 28.7948 25.4972 28.7948 25.4978C28.7948 25.4984 28.7948 25.499 28.7948 25.4996C28.7948 25.5002 28.7948 25.5008 28.7948 25.5014C28.7948 25.5019 28.7948 25.5025 28.7948 25.5031C28.7948 25.5037 28.7948 25.5043 28.7948 25.5049C28.7948 25.5055 28.7948 25.5061 28.7948 25.5067C28.7948 25.5073 28.7948 25.5079 28.7948 25.5085C28.7948 25.5091 28.7948 25.5097 28.7948 25.5103C28.7948 25.5109 28.7948 25.5115 28.7948 25.512C28.7948 25.5126 28.7948 25.5132 28.7948 25.5138C28.7948 25.5144 28.7948 25.515 28.7948 25.5156C28.7948 25.5162 28.7948 25.5168 28.7948 25.5174C28.7948 25.518 28.7948 25.5186 28.7948 25.5192C28.7948 25.5198 28.7948 25.5204 28.7948 25.521C28.7948 25.5215 28.7948 25.5221 28.7948 25.5227C28.7948 25.5233 28.7948 25.5239 28.7948 25.5245C28.7948 25.5251 28.7948 25.5257 28.7948 25.5263C28.7948 25.5269 28.7948 25.5275 28.7948 25.5281C28.7948 25.5287 28.7948 25.5293 28.7948 25.5299C28.7948 25.5305 28.7948 25.5311 28.7948 25.5316C28.7948 25.5322 28.7948 25.5328 28.7948 25.5334C28.7948 25.534 28.7948 25.5346 28.7948 25.5352C28.7948 25.5358 28.7948 25.5364 28.7948 25.537C28.7948 25.5376 28.7948 25.5382 28.7948 25.5388C28.7948 25.5394 28.7948 25.54 28.7948 25.5406C28.7948 25.5411 28.7948 25.5417 28.7948 25.5423C28.7948 25.5429 28.7948 25.5435 28.7948 25.5441C28.7948 25.5447 28.7948 25.5453 28.7948 25.5459C28.7948 25.5465 28.7948 25.5471 28.7948 25.5477C28.7948 25.5483 28.7948 25.5489 28.7948 25.5495C28.7948 25.5501 28.7948 25.5507 28.7948 25.5512C28.7948 25.5518 28.7948 25.5524 28.7948 25.553C28.7948 25.5536 28.7948 25.5542 28.7948 25.5548C28.7948 25.5554 28.7948 25.556 28.7948 25.5566C28.7948 25.5572 28.7948 25.5578 28.7948 25.5584C28.7948 25.559 28.7948 25.5596 28.7948 25.5602C28.7948 25.5607 28.7948 25.5613 28.7948 25.5619C28.7948 25.5625 28.7948 25.5631 28.7948 25.5637C28.7948 25.5643 28.7948 25.5649 28.7948 25.5655C28.7948 25.5661 28.7948 25.5667 28.7948 25.5673C28.7948 25.5679 28.7948 25.5685 28.7948 25.5691C28.7948 25.5697 28.7948 25.5703 28.7948 25.5708C28.7948 25.5714 28.7948 25.572 28.7948 25.5726C28.7948 25.5732 28.7948 25.5738 28.7948 25.5744C28.7948 25.575 28.7948 25.5756 28.7948 25.5762C28.7948 25.5768 28.7948 25.5774 28.7948 25.578C28.7948 25.5786 28.7948 25.5792 28.7948 25.5798C28.7948 25.5803 28.7948 25.5809 28.7948 25.5815C28.7948 25.5821 28.7948 25.5827 28.7948 25.5833C28.7948 25.5839 28.7948 25.5845 28.7948 25.5851C28.7948 25.5857 28.7948 25.5863 28.7948 25.5869C28.7948 25.5875 28.7948 25.5881 28.7948 25.5887C28.7948 25.5893 28.7948 25.5899 28.7948 25.5904C28.7948 25.591 28.7948 25.5916 28.7948 25.5922C28.7948 25.5928 28.7948 25.5934 28.7948 25.594C28.7948 25.5946 28.7948 25.5952 28.7948 25.5958C28.7948 25.5964 28.7948 25.597 28.7948 25.5976C28.7948 25.5982 28.7948 25.5988 28.7948 25.5994C28.7948 25.5999 28.7948 25.6005 28.7948 25.6011C28.7948 25.6017 28.7948 25.6023 28.7948 25.6029C28.7948 25.6035 28.7948 25.6041 28.7948 25.6047C28.7948 25.6053 28.7948 25.6059 28.7948 25.6065C28.7948 25.6071 28.7948 25.6077 28.7948 25.6083C28.7948 25.6089 28.7948 25.6095 28.7948 25.61C28.7948 25.6106 28.7948 25.6112 28.7948 25.6118C28.7948 25.6124 28.7948 25.613 28.7948 25.6136C28.7948 25.6142 28.7948 25.6148 28.7948 25.6154C28.7948 25.616 28.7948 25.6166 28.7948 25.6172C28.7948 25.6178 28.7948 25.6184 28.7948 25.619C28.7948 25.6195 28.7948 25.6201 28.7948 25.6207C28.7948 25.6213 28.7948 25.6219 28.7948 25.6225C28.7948 25.6231 28.7948 25.6237 28.7948 25.6243C28.7948 25.6249 28.7948 25.6255 28.7948 25.6261C28.7948 25.6267 28.7948 25.6273 28.7948 25.6279C28.7948 25.6285 28.7948 25.6291 28.7948 25.6296C28.7948 25.6302 28.7948 25.6308 28.7948 25.6314C28.7948 25.632 28.7948 25.6326 28.7948 25.6332C28.7948 25.6338 28.7948 25.6344 28.7948 25.635C28.7948 25.6356 28.7948 25.6362 28.7948 25.6368C28.7948 25.6374 28.7948 25.638 28.7948 25.6386C28.7948 25.6391 28.7948 25.6397 28.7948 25.6403C28.7948 25.6409 28.7948 25.6415 28.7948 25.6421C28.7948 25.6427 28.7948 25.6433 28.7948 25.6439C28.7948 25.6445 28.7948 25.6451 28.7948 25.6457C28.7948 25.6463 28.7948 25.6469 28.7948 25.6475C28.7948 25.6481 28.7948 25.6487 28.7948 25.6492C28.7948 25.6498 28.7948 25.6504 28.7948 25.651C28.7948 25.6516 28.7948 25.6522 28.7948 25.6528C28.7948 25.6534 28.7948 25.654 28.7948 25.6546C28.7948 25.6552 28.7948 25.6558 28.7948 25.6564C28.7948 25.657 28.7948 25.6576 28.7948 25.6582C28.7948 25.6587 28.7948 25.6593 28.7948 25.6599C28.7948 25.6605 28.7948 25.6611 28.7948 25.6617C28.7948 25.6623 28.7948 25.6629 28.7948 25.6635C28.7948 25.6641 28.7948 25.6647 28.7948 25.6653C28.7948 25.6659 28.7948 25.6665 28.7948 25.6671C28.7948 25.6677 28.7948 25.6682 28.7948 25.6688C28.7948 25.6694 28.7948 25.67 28.7948 25.6706C28.7948 25.6712 28.7948 25.6718 28.7948 25.6724C28.7948 25.673 28.7948 25.6736 28.7948 25.6742C28.7948 25.6748 28.7948 25.6754 28.7948 25.676C28.7948 25.6766 28.7948 25.6772 28.7948 25.6778C28.7948 25.6783 28.7948 25.6789 28.7948 25.6795C28.7948 25.6801 28.7948 25.6807 28.7948 25.6813C28.7948 25.6819 28.7948 25.6825 28.7948 25.6831C28.7948 25.6837 28.7948 25.6843 28.7948 25.6849C28.7948 25.6855 28.7948 25.6861 28.7948 25.6867C28.7948 25.6873 28.7948 25.6878 28.7948 25.6884C28.7948 25.689 28.7948 25.6896 28.7948 25.6902C28.7948 25.6908 28.7948 25.6914 28.7948 25.692C28.7948 25.6926 28.7948 25.6932 28.7948 25.6938C28.7948 25.6944 28.7948 25.695 28.7948 25.6956C28.7948 25.6962 28.7948 25.6968 28.7948 25.6974C28.7948 25.6979 28.7948 25.6985 28.7948 25.6991C28.7948 25.6997 28.7948 25.7003 28.7948 25.7009C28.7948 25.7015 28.7948 25.7021 28.7948 25.7027C28.7948 25.7033 28.7948 25.7039 28.7948 25.7045C28.7948 25.7051 28.7948 25.7057 28.7948 25.7063C28.7948 25.7069 28.7948 25.7074 28.7948 25.708C28.7948 25.7086 28.7948 25.7092 28.7948 25.7098C28.7948 25.7104 28.7948 25.711 28.7948 25.7116C28.7948 25.7122 28.7948 25.7128 28.7948 25.7134C28.7948 25.714 28.7948 25.7146 28.7948 25.7152C28.7948 25.7158 28.7948 25.7164 28.7948 25.717C28.7948 25.7175 28.7948 25.7181 28.7948 25.7187C28.7948 25.7193 28.7948 25.7199 28.7948 25.7205C28.7948 25.7211 28.7948 25.7217 28.7948 25.7223C28.7948 25.7229 28.7948 25.7235 28.7948 25.7241C28.7948 25.7247 28.7948 25.7253 28.7948 25.7259C28.7948 25.7265 28.7948 25.727 28.7948 25.7276C28.7948 25.7282 28.7948 25.7288 28.7948 25.7294C28.7948 25.73 28.7948 25.7306 28.7948 25.7312C28.7948 25.7318 28.7948 25.7324 28.7948 25.733C28.7948 25.7336 28.7948 25.7342 28.7948 25.7348C28.7948 25.7354 28.7948 25.736 28.7948 25.7366C28.7948 25.7371 28.7948 25.7377 28.7948 25.7383C28.7948 25.7389 28.7948 25.7395 28.7948 25.7401C28.7948 25.7407 28.7948 25.7413 28.7948 25.7419C28.7948 25.7425 28.7948 25.7431 28.7948 25.7437C28.7948 25.7443 28.7948 25.7449 28.7948 25.7455C28.7948 25.7461 28.7948 25.7466 28.7948 25.7472C28.7948 25.7478 28.7948 25.7484 28.7948 25.749C28.7948 25.7496 28.7948 25.7502 28.7948 25.7508C28.7948 25.7514 28.7948 25.752 28.7948 25.7526C28.7948 25.7532 28.7948 25.7538 28.7948 25.7544C28.7948 25.755 28.7948 25.7556 28.7948 25.7562C28.7948 25.7567 28.7948 25.7573 28.7948 25.7579C28.7948 25.7585 28.7948 25.7591 28.7948 25.7597C28.7948 25.7603 28.7948 25.7609 28.7948 25.7615C28.7948 25.7621 28.7948 25.7627 28.7948 25.7633C28.7948 25.7639 28.7948 25.7645 28.7948 25.7651C28.7948 25.7657 28.7948 25.7662 28.7948 25.7668C28.7948 25.7674 28.7948 25.768 28.7948 25.7686C28.7948 25.7692 28.7948 25.7698 28.7948 25.7704C28.7948 25.771 28.7948 25.7716 28.7948 25.7722C28.7948 25.7728 28.7948 25.7734 28.7948 25.774C28.7948 25.7746 28.7948 25.7752 28.7948 25.7758C28.7948 25.7763 28.7948 25.7769 28.7948 25.7775C28.7948 25.7781 28.7948 25.7787 28.7948 25.7793C28.7948 25.7799 28.7948 25.7805 28.7948 25.7811C28.7948 25.7817 28.7948 25.7823 28.7948 25.7829C28.7948 25.7835 28.7948 25.7841 28.7948 25.7847C28.7948 25.7853 28.7948 25.7858 28.7948 25.7864C28.7948 25.787 28.7948 25.7876 28.7948 25.7882C28.7948 25.7888 28.7948 25.7894 28.7948 25.79C28.7948 25.7906 28.7948 25.7912 28.7948 25.7918C28.7948 25.7924 28.7948 25.793 28.7948 25.7936C28.7948 25.7942 28.7948 25.7948 28.7948 25.7954C28.7948 25.7959 28.7948 25.7965 28.7948 25.7971C28.7948 25.7977 28.7948 25.7983 28.7948 25.7989C28.7948 25.7995 28.7948 25.8001 28.7948 25.8007C28.7948 25.8013 28.7948 25.8019 28.7948 25.8025C28.7948 25.8031 28.7948 25.8037 28.7948 25.8043C28.7948 25.8049 28.7948 25.8054 28.7948 25.806C28.7948 25.8066 28.7948 25.8072 28.7948 25.8078C28.7948 25.8084 28.7948 25.809 28.7948 25.8096C28.7948 25.8102 28.7948 25.8108 28.7948 25.8114C28.7948 25.812 28.7948 25.8126 28.7948 25.8132C28.7948 25.8138 28.7948 25.8144 28.7948 25.815C28.7948 25.8155 28.7948 25.8161 28.7948 25.8167C28.7948 25.8173 28.7948 25.8179 28.7948 25.8185C28.7948 25.8191 28.7948 25.8197 28.7948 25.8203C28.7948 25.8209 28.7948 25.8215 28.7948 25.8221C28.7948 25.8227 28.7948 25.8233 28.7948 25.8239C28.7948 25.8245 28.7948 25.825 28.7948 25.8256C28.7948 25.8262 28.7948 25.8268 28.7948 25.8274C28.7948 25.828 28.7948 25.8286 28.7948 25.8292C28.7948 25.8298 28.7948 25.8304 28.7948 25.831C28.7948 25.8316 28.7948 25.8322 28.7948 25.8328C28.7948 25.8334 28.7948 25.834 28.7948 25.8346C28.7948 25.8351 28.7948 25.8357 28.7948 25.8363C28.7948 25.8369 28.7948 25.8375 28.7948 25.8381C28.7948 25.8387 28.7948 25.8393 28.7948 25.8399C28.7948 25.8405 28.7948 25.8411 28.7948 25.8417C28.7948 25.8423 28.7948 25.8429 28.7948 25.8435C28.7948 25.8441 28.7948 25.8446 28.7948 25.8452C28.7948 25.8458 28.7948 25.8464 28.7948 25.847C28.7948 25.8476 28.7948 25.8482 28.7948 25.8488C28.7948 25.8494 28.7948 25.85 28.7948 25.8506C28.7948 25.8512 28.7948 25.8518 28.7948 25.8524C28.7948 25.853 28.7948 25.8536 28.7948 25.8542C28.7948 25.8547 28.7948 25.8553 28.7948 25.8559C28.7948 25.8565 28.7948 25.8571 28.7948 25.8577C28.7948 25.8583 28.7948 25.8589 28.7948 25.8595C28.7948 25.8601 28.7948 25.8607 28.7948 25.8613C28.7948 25.8619 28.7948 25.8625 28.7948 25.8631C28.7948 25.8637 28.7948 25.8642 28.7948 25.8648C28.7948 25.8654 28.7948 25.866 28.7948 25.8666C28.7948 25.8672 28.7948 25.8678 28.7948 25.8684C28.7948 25.869 28.7948 25.8696 28.7948 25.8702C28.7948 25.8708 28.7948 25.8714 28.7948 25.872C28.7948 25.8726 28.7948 25.8732 28.7948 25.8738C28.7948 25.8743 28.7948 25.8749 28.7948 25.8755C28.7948 25.8761 28.7948 25.8767 28.7948 25.8773C28.7948 25.8779 28.7948 25.8785 28.7948 25.8791C28.7948 25.8797 28.7948 25.8803 28.7948 25.8809C28.7948 25.8815 28.7948 25.8821 28.7948 25.8827C28.7948 25.8833 28.7948 25.8838 28.7948 25.8844C28.7948 25.885 28.7948 25.8856 28.7948 25.8862C28.7948 25.8868 28.7948 25.8874 28.7948 25.888C28.7948 25.8886 28.7948 25.8892 28.7948 25.8898C28.7948 25.8904 28.7948 25.891 28.7948 25.8916C28.7948 25.8922 28.7948 25.8928 28.7948 25.8934C28.7948 25.8939 28.7948 25.8945 28.7948 25.8951C28.7948 25.8957 28.7948 25.8963 28.7948 25.8969C28.7948 25.8975 28.7948 25.8981 28.7948 25.8987C28.7948 25.8993 28.7948 25.8999 28.7948 25.9005C28.7948 25.9011 28.7948 25.9017 28.7948 25.9023C28.7948 25.9029 28.7948 25.9034 28.7948 25.904C28.7948 25.9046 28.7948 25.9052 28.7948 25.9058C28.7948 25.9064 28.7948 25.907 28.7948 25.9076C28.7948 25.9082 28.7948 25.9088 28.7948 25.9094C28.7948 25.91 28.7948 25.9106 28.7948 25.9112C28.7948 25.9118 28.7948 25.9124 28.7948 25.913C28.7948 25.9135 28.7948 25.9141 28.7948 25.9147C28.7948 25.9153 28.7948 25.9159 28.7948 25.9165C28.7948 25.9171 28.7948 25.9177 28.7948 25.9183C28.7948 25.9189 28.7948 25.9195 28.7948 25.9201C28.7948 25.9207 28.7948 25.9213 28.7948 25.9219C28.7948 25.9225 28.7948 25.923 28.7948 25.9236C28.7948 25.9242 28.7948 25.9248 28.7948 25.9254C28.7948 25.926 28.7948 25.9266 28.7948 25.9272C28.7948 25.9278 28.7948 25.9284 28.7948 25.929C28.7948 25.9296 28.7948 25.9302 28.7948 25.9308C28.7948 25.9314 28.7948 25.932 28.7948 25.9325C28.7948 25.9331 28.7948 25.9337 28.7948 25.9343C28.7948 25.9349 28.7948 25.9355 28.7948 25.9361C28.7948 25.9367 28.7948 25.9373 28.7948 25.9379C28.7948 25.9385 28.7948 25.9391 28.7948 25.9397C28.7948 25.9403 28.7948 25.9409 28.7948 25.9415C28.7948 25.9421 28.7948 25.9426 28.7948 25.9432C28.7948 25.9438 28.7948 25.9444 28.7948 25.945C28.7948 25.9456 28.7948 25.9462 28.7948 25.9468C28.7948 25.9474 28.7948 25.948 28.7948 25.9486C28.7948 25.9492 28.7948 25.9498 28.7948 25.9504C28.7948 25.951 28.7948 25.9516 28.7948 25.9521C28.7948 25.9527 28.7948 25.9533 28.7948 25.9539C28.7948 25.9545 28.7948 25.9551 28.7948 25.9557C28.7948 25.9563 28.7948 25.9569 28.7948 25.9575C28.7948 25.9581 28.7948 25.9587 28.7948 25.9593C28.7948 25.9599 28.7948 25.9605 28.7948 25.9611C28.7948 25.9617 28.7948 25.9622 28.7948 25.9628C28.7948 25.9634 28.7948 25.964 28.7948 25.9646C28.7948 25.9652 28.7948 25.9658 28.7948 25.9664C28.7948 25.967 28.7948 25.9676 28.7948 25.9682C28.7948 25.9688 28.7948 25.9694 28.7948 25.97C28.7948 25.9706 28.7948 25.9712 28.7948 25.9717C28.7948 25.9723 28.7948 25.9729 28.7948 25.9735C28.7948 25.9741 28.7948 25.9747 28.7948 25.9753C28.7948 25.9759 28.7948 25.9765 28.7948 25.9771C28.7948 25.9777 28.7948 25.9783 28.7948 25.9789C28.7948 25.9795 28.7948 25.9801 28.7948 25.9807C28.7948 25.9813 28.7948 25.9818 28.7948 25.9824C28.7948 25.983 28.7948 25.9836 28.7948 25.9842C28.7948 25.9848 28.7948 25.9854 28.7948 25.986C28.7948 25.9866 28.7948 25.9872 28.7948 25.9878C28.7948 25.9884 28.7948 25.989 28.7948 25.9896C28.7948 25.9902 28.7948 25.9908 28.7948 25.9913C28.7948 25.9919 28.7948 25.9925 28.7948 25.9931C28.7948 25.9937 28.7948 25.9943 28.7948 25.9949C28.7948 25.9955 28.7948 25.9961 28.7948 25.9967C28.7948 25.9973 28.7948 25.9979 28.7948 25.9985C28.7948 25.9991 28.7948 25.9997 28.7948 26.0003C28.7948 26.0009 28.7948 26.0014 28.7948 26.002C28.7948 26.0026 28.7948 26.0032 28.7948 26.0038C28.7948 26.0044 28.7948 26.005 28.7948 26.0056C28.7948 26.0062 28.7948 26.0068 28.7948 26.0074C28.7948 26.008 28.7948 26.0086 28.7948 26.0092C28.7948 26.0098 28.7948 26.0104 28.7948 26.0109C28.7948 26.0115 28.7948 26.0121 28.7948 26.0127C28.7948 26.0133 28.7948 26.0139 28.7948 26.0145C28.7948 26.0151 28.7948 26.0157 28.7948 26.0163C28.7948 26.0169 28.7948 26.0175 28.7948 26.0181C28.7948 26.0187 28.7948 26.0193 28.7948 26.0199C28.7948 26.0205 28.7948 26.021 28.7948 26.0216C28.7948 26.0222 28.7948 26.0228 28.7948 26.0234C28.7948 26.024 28.7948 26.0246 28.7948 26.0252C28.7948 26.0258 28.7948 26.0264 28.7948 26.027C28.7948 26.0276 28.7948 26.0282 28.7948 26.0288C28.7948 26.0294 28.7948 26.03 28.7948 26.0305C28.7948 26.0311 28.7948 26.0317 28.7948 26.0323C28.7948 26.0329 28.7948 26.0335 28.7948 26.0341C28.7948 26.0347 28.7948 26.0353 28.7948 26.0359C28.7948 26.0365 28.7948 26.0371 28.7948 26.0377C28.7948 26.0383 28.7948 26.0389 28.7948 26.0395C28.7948 26.0401 28.7948 26.0406 28.7948 26.0412C28.7948 26.0418 28.7948 26.0424 28.7948 26.043C28.7948 26.0436 28.7948 26.0442 28.7948 26.0448C28.7948 26.0454 28.7948 26.046 28.7948 26.0466C28.7948 26.0472 28.7948 26.0478 28.7948 26.0484C28.7948 26.049 28.7948 26.0496 28.7948 26.0501C28.7948 26.0507 28.7948 26.0513 28.7948 26.0519C28.7948 26.0525 28.7948 26.0531 28.7948 26.0537C28.7948 26.0543 28.7948 26.0549 28.7948 26.0555C28.7948 26.0561 28.7948 26.0567 28.7948 26.0573C28.7948 26.0579 28.7948 26.0585 28.7948 26.0591C28.7948 26.0597 28.7948 26.0602 28.7948 26.0608C28.7948 26.0614 28.7948 26.062 28.7948 26.0626C28.7948 26.0632 28.7948 26.0638 28.7948 26.0644C28.7948 26.065 28.7948 26.0656 28.7948 26.0662C28.7948 26.0668 28.7948 26.0674 28.7948 26.068C28.7948 26.0686 28.7948 26.0692 28.7948 26.0697C28.7948 26.0703 28.7948 26.0709 28.7948 26.0715C28.7948 26.0721 28.7948 26.0727 28.7948 26.0733C28.7948 26.0739 28.7948 26.0745 28.7948 26.0751C28.7948 26.0757 28.7948 26.0763 28.7948 26.0769C28.7948 26.0775 28.7948 26.0781 28.7948 26.0787C28.7948 26.0793 28.7948 26.0798 28.7948 26.0804C28.7948 26.081 28.7948 26.0816 28.7948 26.0822C28.7948 26.0828 28.7948 26.0834 28.7948 26.084C28.7948 26.0846 28.7948 26.0852 28.7948 26.0858C28.7948 26.0864 28.7948 26.087 28.7948 26.0876C28.7948 26.0882 28.7948 26.0888 28.7948 26.0893C28.7948 26.0899 28.7948 26.0905 28.7948 26.0911C28.7948 26.0917 28.7948 26.0923 28.7948 26.0929C28.7948 26.0935 28.7948 26.0941 28.7948 26.0947C28.7948 26.0953 28.7948 26.0959 28.7948 26.0965C28.7948 26.0971 28.7948 26.0977 28.7948 26.0983C28.7948 26.0989 28.7948 26.0994 28.7948 26.1C28.7948 26.1006 28.7948 26.1012 28.7948 26.1018C28.7948 26.1024 28.7948 26.103 28.7948 26.1036C28.7948 26.1042 28.7948 26.1048 28.7948 26.1054C28.7948 26.106 28.7948 26.1066 28.7948 26.1072C28.7948 26.1078 28.7948 26.1084 28.7948 26.1089C28.7948 26.1095 28.7948 26.1101 28.7948 26.1107C28.7948 26.1113 28.7948 26.1119 28.7948 26.1125C28.7948 26.1131 28.7948 26.1137 28.7948 26.1143C28.7948 26.1149 28.7948 26.1155 28.7948 26.1161C28.7948 26.1167 28.7948 26.1173 28.7948 26.1179C28.7948 26.1185 28.7948 26.119 28.7948 26.1196C28.7948 26.1202 28.7948 26.1208 28.7948 26.1214H30.2948H31.7948C31.7948 26.1208 31.7948 26.1202 31.7948 26.1196C31.7948 26.119 31.7948 26.1185 31.7948 26.1179C31.7948 26.1173 31.7948 26.1167 31.7948 26.1161C31.7948 26.1155 31.7948 26.1149 31.7948 26.1143C31.7948 26.1137 31.7948 26.1131 31.7948 26.1125C31.7948 26.1119 31.7948 26.1113 31.7948 26.1107C31.7948 26.1101 31.7948 26.1095 31.7948 26.1089C31.7948 26.1084 31.7948 26.1078 31.7948 26.1072C31.7948 26.1066 31.7948 26.106 31.7948 26.1054C31.7948 26.1048 31.7948 26.1042 31.7948 26.1036C31.7948 26.103 31.7948 26.1024 31.7948 26.1018C31.7948 26.1012 31.7948 26.1006 31.7948 26.1C31.7948 26.0994 31.7948 26.0989 31.7948 26.0983C31.7948 26.0977 31.7948 26.0971 31.7948 26.0965C31.7948 26.0959 31.7948 26.0953 31.7948 26.0947C31.7948 26.0941 31.7948 26.0935 31.7948 26.0929C31.7948 26.0923 31.7948 26.0917 31.7948 26.0911C31.7948 26.0905 31.7948 26.0899 31.7948 26.0893C31.7948 26.0888 31.7948 26.0882 31.7948 26.0876C31.7948 26.087 31.7948 26.0864 31.7948 26.0858C31.7948 26.0852 31.7948 26.0846 31.7948 26.084C31.7948 26.0834 31.7948 26.0828 31.7948 26.0822C31.7948 26.0816 31.7948 26.081 31.7948 26.0804C31.7948 26.0798 31.7948 26.0793 31.7948 26.0787C31.7948 26.0781 31.7948 26.0775 31.7948 26.0769C31.7948 26.0763 31.7948 26.0757 31.7948 26.0751C31.7948 26.0745 31.7948 26.0739 31.7948 26.0733C31.7948 26.0727 31.7948 26.0721 31.7948 26.0715C31.7948 26.0709 31.7948 26.0703 31.7948 26.0697C31.7948 26.0692 31.7948 26.0686 31.7948 26.068C31.7948 26.0674 31.7948 26.0668 31.7948 26.0662C31.7948 26.0656 31.7948 26.065 31.7948 26.0644C31.7948 26.0638 31.7948 26.0632 31.7948 26.0626C31.7948 26.062 31.7948 26.0614 31.7948 26.0608C31.7948 26.0602 31.7948 26.0597 31.7948 26.0591C31.7948 26.0585 31.7948 26.0579 31.7948 26.0573C31.7948 26.0567 31.7948 26.0561 31.7948 26.0555C31.7948 26.0549 31.7948 26.0543 31.7948 26.0537C31.7948 26.0531 31.7948 26.0525 31.7948 26.0519C31.7948 26.0513 31.7948 26.0507 31.7948 26.0501C31.7948 26.0496 31.7948 26.049 31.7948 26.0484C31.7948 26.0478 31.7948 26.0472 31.7948 26.0466C31.7948 26.046 31.7948 26.0454 31.7948 26.0448C31.7948 26.0442 31.7948 26.0436 31.7948 26.043C31.7948 26.0424 31.7948 26.0418 31.7948 26.0412C31.7948 26.0406 31.7948 26.0401 31.7948 26.0395C31.7948 26.0389 31.7948 26.0383 31.7948 26.0377C31.7948 26.0371 31.7948 26.0365 31.7948 26.0359C31.7948 26.0353 31.7948 26.0347 31.7948 26.0341C31.7948 26.0335 31.7948 26.0329 31.7948 26.0323C31.7948 26.0317 31.7948 26.0311 31.7948 26.0305C31.7948 26.03 31.7948 26.0294 31.7948 26.0288C31.7948 26.0282 31.7948 26.0276 31.7948 26.027C31.7948 26.0264 31.7948 26.0258 31.7948 26.0252C31.7948 26.0246 31.7948 26.024 31.7948 26.0234C31.7948 26.0228 31.7948 26.0222 31.7948 26.0216C31.7948 26.021 31.7948 26.0205 31.7948 26.0199C31.7948 26.0193 31.7948 26.0187 31.7948 26.0181C31.7948 26.0175 31.7948 26.0169 31.7948 26.0163C31.7948 26.0157 31.7948 26.0151 31.7948 26.0145C31.7948 26.0139 31.7948 26.0133 31.7948 26.0127C31.7948 26.0121 31.7948 26.0115 31.7948 26.0109C31.7948 26.0104 31.7948 26.0098 31.7948 26.0092C31.7948 26.0086 31.7948 26.008 31.7948 26.0074C31.7948 26.0068 31.7948 26.0062 31.7948 26.0056C31.7948 26.005 31.7948 26.0044 31.7948 26.0038C31.7948 26.0032 31.7948 26.0026 31.7948 26.002C31.7948 26.0014 31.7948 26.0009 31.7948 26.0003C31.7948 25.9997 31.7948 25.9991 31.7948 25.9985C31.7948 25.9979 31.7948 25.9973 31.7948 25.9967C31.7948 25.9961 31.7948 25.9955 31.7948 25.9949C31.7948 25.9943 31.7948 25.9937 31.7948 25.9931C31.7948 25.9925 31.7948 25.9919 31.7948 25.9913C31.7948 25.9908 31.7948 25.9902 31.7948 25.9896C31.7948 25.989 31.7948 25.9884 31.7948 25.9878C31.7948 25.9872 31.7948 25.9866 31.7948 25.986C31.7948 25.9854 31.7948 25.9848 31.7948 25.9842C31.7948 25.9836 31.7948 25.983 31.7948 25.9824C31.7948 25.9818 31.7948 25.9813 31.7948 25.9807C31.7948 25.9801 31.7948 25.9795 31.7948 25.9789C31.7948 25.9783 31.7948 25.9777 31.7948 25.9771C31.7948 25.9765 31.7948 25.9759 31.7948 25.9753C31.7948 25.9747 31.7948 25.9741 31.7948 25.9735C31.7948 25.9729 31.7948 25.9723 31.7948 25.9717C31.7948 25.9712 31.7948 25.9706 31.7948 25.97C31.7948 25.9694 31.7948 25.9688 31.7948 25.9682C31.7948 25.9676 31.7948 25.967 31.7948 25.9664C31.7948 25.9658 31.7948 25.9652 31.7948 25.9646C31.7948 25.964 31.7948 25.9634 31.7948 25.9628C31.7948 25.9622 31.7948 25.9617 31.7948 25.9611C31.7948 25.9605 31.7948 25.9599 31.7948 25.9593C31.7948 25.9587 31.7948 25.9581 31.7948 25.9575C31.7948 25.9569 31.7948 25.9563 31.7948 25.9557C31.7948 25.9551 31.7948 25.9545 31.7948 25.9539C31.7948 25.9533 31.7948 25.9527 31.7948 25.9521C31.7948 25.9516 31.7948 25.951 31.7948 25.9504C31.7948 25.9498 31.7948 25.9492 31.7948 25.9486C31.7948 25.948 31.7948 25.9474 31.7948 25.9468C31.7948 25.9462 31.7948 25.9456 31.7948 25.945C31.7948 25.9444 31.7948 25.9438 31.7948 25.9432C31.7948 25.9426 31.7948 25.9421 31.7948 25.9415C31.7948 25.9409 31.7948 25.9403 31.7948 25.9397C31.7948 25.9391 31.7948 25.9385 31.7948 25.9379C31.7948 25.9373 31.7948 25.9367 31.7948 25.9361C31.7948 25.9355 31.7948 25.9349 31.7948 25.9343C31.7948 25.9337 31.7948 25.9331 31.7948 25.9325C31.7948 25.932 31.7948 25.9314 31.7948 25.9308C31.7948 25.9302 31.7948 25.9296 31.7948 25.929C31.7948 25.9284 31.7948 25.9278 31.7948 25.9272C31.7948 25.9266 31.7948 25.926 31.7948 25.9254C31.7948 25.9248 31.7948 25.9242 31.7948 25.9236C31.7948 25.923 31.7948 25.9225 31.7948 25.9219C31.7948 25.9213 31.7948 25.9207 31.7948 25.9201C31.7948 25.9195 31.7948 25.9189 31.7948 25.9183C31.7948 25.9177 31.7948 25.9171 31.7948 25.9165C31.7948 25.9159 31.7948 25.9153 31.7948 25.9147C31.7948 25.9141 31.7948 25.9135 31.7948 25.913C31.7948 25.9124 31.7948 25.9118 31.7948 25.9112C31.7948 25.9106 31.7948 25.91 31.7948 25.9094C31.7948 25.9088 31.7948 25.9082 31.7948 25.9076C31.7948 25.907 31.7948 25.9064 31.7948 25.9058C31.7948 25.9052 31.7948 25.9046 31.7948 25.904C31.7948 25.9034 31.7948 25.9029 31.7948 25.9023C31.7948 25.9017 31.7948 25.9011 31.7948 25.9005C31.7948 25.8999 31.7948 25.8993 31.7948 25.8987C31.7948 25.8981 31.7948 25.8975 31.7948 25.8969C31.7948 25.8963 31.7948 25.8957 31.7948 25.8951C31.7948 25.8945 31.7948 25.8939 31.7948 25.8934C31.7948 25.8928 31.7948 25.8922 31.7948 25.8916C31.7948 25.891 31.7948 25.8904 31.7948 25.8898C31.7948 25.8892 31.7948 25.8886 31.7948 25.888C31.7948 25.8874 31.7948 25.8868 31.7948 25.8862C31.7948 25.8856 31.7948 25.885 31.7948 25.8844C31.7948 25.8838 31.7948 25.8833 31.7948 25.8827C31.7948 25.8821 31.7948 25.8815 31.7948 25.8809C31.7948 25.8803 31.7948 25.8797 31.7948 25.8791C31.7948 25.8785 31.7948 25.8779 31.7948 25.8773C31.7948 25.8767 31.7948 25.8761 31.7948 25.8755C31.7948 25.8749 31.7948 25.8743 31.7948 25.8738C31.7948 25.8732 31.7948 25.8726 31.7948 25.872C31.7948 25.8714 31.7948 25.8708 31.7948 25.8702C31.7948 25.8696 31.7948 25.869 31.7948 25.8684C31.7948 25.8678 31.7948 25.8672 31.7948 25.8666C31.7948 25.866 31.7948 25.8654 31.7948 25.8648C31.7948 25.8642 31.7948 25.8637 31.7948 25.8631C31.7948 25.8625 31.7948 25.8619 31.7948 25.8613C31.7948 25.8607 31.7948 25.8601 31.7948 25.8595C31.7948 25.8589 31.7948 25.8583 31.7948 25.8577C31.7948 25.8571 31.7948 25.8565 31.7948 25.8559C31.7948 25.8553 31.7948 25.8547 31.7948 25.8542C31.7948 25.8536 31.7948 25.853 31.7948 25.8524C31.7948 25.8518 31.7948 25.8512 31.7948 25.8506C31.7948 25.85 31.7948 25.8494 31.7948 25.8488C31.7948 25.8482 31.7948 25.8476 31.7948 25.847C31.7948 25.8464 31.7948 25.8458 31.7948 25.8452C31.7948 25.8446 31.7948 25.8441 31.7948 25.8435C31.7948 25.8429 31.7948 25.8423 31.7948 25.8417C31.7948 25.8411 31.7948 25.8405 31.7948 25.8399C31.7948 25.8393 31.7948 25.8387 31.7948 25.8381C31.7948 25.8375 31.7948 25.8369 31.7948 25.8363C31.7948 25.8357 31.7948 25.8351 31.7948 25.8346C31.7948 25.834 31.7948 25.8334 31.7948 25.8328C31.7948 25.8322 31.7948 25.8316 31.7948 25.831C31.7948 25.8304 31.7948 25.8298 31.7948 25.8292C31.7948 25.8286 31.7948 25.828 31.7948 25.8274C31.7948 25.8268 31.7948 25.8262 31.7948 25.8256C31.7948 25.825 31.7948 25.8245 31.7948 25.8239C31.7948 25.8233 31.7948 25.8227 31.7948 25.8221C31.7948 25.8215 31.7948 25.8209 31.7948 25.8203C31.7948 25.8197 31.7948 25.8191 31.7948 25.8185C31.7948 25.8179 31.7948 25.8173 31.7948 25.8167C31.7948 25.8161 31.7948 25.8155 31.7948 25.815C31.7948 25.8144 31.7948 25.8138 31.7948 25.8132C31.7948 25.8126 31.7948 25.812 31.7948 25.8114C31.7948 25.8108 31.7948 25.8102 31.7948 25.8096C31.7948 25.809 31.7948 25.8084 31.7948 25.8078C31.7948 25.8072 31.7948 25.8066 31.7948 25.806C31.7948 25.8054 31.7948 25.8049 31.7948 25.8043C31.7948 25.8037 31.7948 25.8031 31.7948 25.8025C31.7948 25.8019 31.7948 25.8013 31.7948 25.8007C31.7948 25.8001 31.7948 25.7995 31.7948 25.7989C31.7948 25.7983 31.7948 25.7977 31.7948 25.7971C31.7948 25.7965 31.7948 25.7959 31.7948 25.7954C31.7948 25.7948 31.7948 25.7942 31.7948 25.7936C31.7948 25.793 31.7948 25.7924 31.7948 25.7918C31.7948 25.7912 31.7948 25.7906 31.7948 25.79C31.7948 25.7894 31.7948 25.7888 31.7948 25.7882C31.7948 25.7876 31.7948 25.787 31.7948 25.7864C31.7948 25.7858 31.7948 25.7853 31.7948 25.7847C31.7948 25.7841 31.7948 25.7835 31.7948 25.7829C31.7948 25.7823 31.7948 25.7817 31.7948 25.7811C31.7948 25.7805 31.7948 25.7799 31.7948 25.7793C31.7948 25.7787 31.7948 25.7781 31.7948 25.7775C31.7948 25.7769 31.7948 25.7763 31.7948 25.7758C31.7948 25.7752 31.7948 25.7746 31.7948 25.774C31.7948 25.7734 31.7948 25.7728 31.7948 25.7722C31.7948 25.7716 31.7948 25.771 31.7948 25.7704C31.7948 25.7698 31.7948 25.7692 31.7948 25.7686C31.7948 25.768 31.7948 25.7674 31.7948 25.7668C31.7948 25.7662 31.7948 25.7657 31.7948 25.7651C31.7948 25.7645 31.7948 25.7639 31.7948 25.7633C31.7948 25.7627 31.7948 25.7621 31.7948 25.7615C31.7948 25.7609 31.7948 25.7603 31.7948 25.7597C31.7948 25.7591 31.7948 25.7585 31.7948 25.7579C31.7948 25.7573 31.7948 25.7567 31.7948 25.7562C31.7948 25.7556 31.7948 25.755 31.7948 25.7544C31.7948 25.7538 31.7948 25.7532 31.7948 25.7526C31.7948 25.752 31.7948 25.7514 31.7948 25.7508C31.7948 25.7502 31.7948 25.7496 31.7948 25.749C31.7948 25.7484 31.7948 25.7478 31.7948 25.7472C31.7948 25.7466 31.7948 25.7461 31.7948 25.7455C31.7948 25.7449 31.7948 25.7443 31.7948 25.7437C31.7948 25.7431 31.7948 25.7425 31.7948 25.7419C31.7948 25.7413 31.7948 25.7407 31.7948 25.7401C31.7948 25.7395 31.7948 25.7389 31.7948 25.7383C31.7948 25.7377 31.7948 25.7371 31.7948 25.7366C31.7948 25.736 31.7948 25.7354 31.7948 25.7348C31.7948 25.7342 31.7948 25.7336 31.7948 25.733C31.7948 25.7324 31.7948 25.7318 31.7948 25.7312C31.7948 25.7306 31.7948 25.73 31.7948 25.7294C31.7948 25.7288 31.7948 25.7282 31.7948 25.7276C31.7948 25.727 31.7948 25.7265 31.7948 25.7259C31.7948 25.7253 31.7948 25.7247 31.7948 25.7241C31.7948 25.7235 31.7948 25.7229 31.7948 25.7223C31.7948 25.7217 31.7948 25.7211 31.7948 25.7205C31.7948 25.7199 31.7948 25.7193 31.7948 25.7187C31.7948 25.7181 31.7948 25.7175 31.7948 25.717C31.7948 25.7164 31.7948 25.7158 31.7948 25.7152C31.7948 25.7146 31.7948 25.714 31.7948 25.7134C31.7948 25.7128 31.7948 25.7122 31.7948 25.7116C31.7948 25.711 31.7948 25.7104 31.7948 25.7098C31.7948 25.7092 31.7948 25.7086 31.7948 25.708C31.7948 25.7074 31.7948 25.7069 31.7948 25.7063C31.7948 25.7057 31.7948 25.7051 31.7948 25.7045C31.7948 25.7039 31.7948 25.7033 31.7948 25.7027C31.7948 25.7021 31.7948 25.7015 31.7948 25.7009C31.7948 25.7003 31.7948 25.6997 31.7948 25.6991C31.7948 25.6985 31.7948 25.6979 31.7948 25.6974C31.7948 25.6968 31.7948 25.6962 31.7948 25.6956C31.7948 25.695 31.7948 25.6944 31.7948 25.6938C31.7948 25.6932 31.7948 25.6926 31.7948 25.692C31.7948 25.6914 31.7948 25.6908 31.7948 25.6902C31.7948 25.6896 31.7948 25.689 31.7948 25.6884C31.7948 25.6878 31.7948 25.6873 31.7948 25.6867C31.7948 25.6861 31.7948 25.6855 31.7948 25.6849C31.7948 25.6843 31.7948 25.6837 31.7948 25.6831C31.7948 25.6825 31.7948 25.6819 31.7948 25.6813C31.7948 25.6807 31.7948 25.6801 31.7948 25.6795C31.7948 25.6789 31.7948 25.6783 31.7948 25.6778C31.7948 25.6772 31.7948 25.6766 31.7948 25.676C31.7948 25.6754 31.7948 25.6748 31.7948 25.6742C31.7948 25.6736 31.7948 25.673 31.7948 25.6724C31.7948 25.6718 31.7948 25.6712 31.7948 25.6706C31.7948 25.67 31.7948 25.6694 31.7948 25.6688C31.7948 25.6682 31.7948 25.6677 31.7948 25.6671C31.7948 25.6665 31.7948 25.6659 31.7948 25.6653C31.7948 25.6647 31.7948 25.6641 31.7948 25.6635C31.7948 25.6629 31.7948 25.6623 31.7948 25.6617C31.7948 25.6611 31.7948 25.6605 31.7948 25.6599C31.7948 25.6593 31.7948 25.6587 31.7948 25.6582C31.7948 25.6576 31.7948 25.657 31.7948 25.6564C31.7948 25.6558 31.7948 25.6552 31.7948 25.6546C31.7948 25.654 31.7948 25.6534 31.7948 25.6528C31.7948 25.6522 31.7948 25.6516 31.7948 25.651C31.7948 25.6504 31.7948 25.6498 31.7948 25.6492C31.7948 25.6487 31.7948 25.6481 31.7948 25.6475C31.7948 25.6469 31.7948 25.6463 31.7948 25.6457C31.7948 25.6451 31.7948 25.6445 31.7948 25.6439C31.7948 25.6433 31.7948 25.6427 31.7948 25.6421C31.7948 25.6415 31.7948 25.6409 31.7948 25.6403C31.7948 25.6397 31.7948 25.6391 31.7948 25.6386C31.7948 25.638 31.7948 25.6374 31.7948 25.6368C31.7948 25.6362 31.7948 25.6356 31.7948 25.635C31.7948 25.6344 31.7948 25.6338 31.7948 25.6332C31.7948 25.6326 31.7948 25.632 31.7948 25.6314C31.7948 25.6308 31.7948 25.6302 31.7948 25.6296C31.7948 25.6291 31.7948 25.6285 31.7948 25.6279C31.7948 25.6273 31.7948 25.6267 31.7948 25.6261C31.7948 25.6255 31.7948 25.6249 31.7948 25.6243C31.7948 25.6237 31.7948 25.6231 31.7948 25.6225C31.7948 25.6219 31.7948 25.6213 31.7948 25.6207C31.7948 25.6201 31.7948 25.6195 31.7948 25.619C31.7948 25.6184 31.7948 25.6178 31.7948 25.6172C31.7948 25.6166 31.7948 25.616 31.7948 25.6154C31.7948 25.6148 31.7948 25.6142 31.7948 25.6136C31.7948 25.613 31.7948 25.6124 31.7948 25.6118C31.7948 25.6112 31.7948 25.6106 31.7948 25.61C31.7948 25.6095 31.7948 25.6089 31.7948 25.6083C31.7948 25.6077 31.7948 25.6071 31.7948 25.6065C31.7948 25.6059 31.7948 25.6053 31.7948 25.6047C31.7948 25.6041 31.7948 25.6035 31.7948 25.6029C31.7948 25.6023 31.7948 25.6017 31.7948 25.6011C31.7948 25.6005 31.7948 25.5999 31.7948 25.5994C31.7948 25.5988 31.7948 25.5982 31.7948 25.5976C31.7948 25.597 31.7948 25.5964 31.7948 25.5958C31.7948 25.5952 31.7948 25.5946 31.7948 25.594C31.7948 25.5934 31.7948 25.5928 31.7948 25.5922C31.7948 25.5916 31.7948 25.591 31.7948 25.5904C31.7948 25.5899 31.7948 25.5893 31.7948 25.5887C31.7948 25.5881 31.7948 25.5875 31.7948 25.5869C31.7948 25.5863 31.7948 25.5857 31.7948 25.5851C31.7948 25.5845 31.7948 25.5839 31.7948 25.5833C31.7948 25.5827 31.7948 25.5821 31.7948 25.5815C31.7948 25.5809 31.7948 25.5803 31.7948 25.5798C31.7948 25.5792 31.7948 25.5786 31.7948 25.578C31.7948 25.5774 31.7948 25.5768 31.7948 25.5762C31.7948 25.5756 31.7948 25.575 31.7948 25.5744C31.7948 25.5738 31.7948 25.5732 31.7948 25.5726C31.7948 25.572 31.7948 25.5714 31.7948 25.5708C31.7948 25.5703 31.7948 25.5697 31.7948 25.5691C31.7948 25.5685 31.7948 25.5679 31.7948 25.5673C31.7948 25.5667 31.7948 25.5661 31.7948 25.5655C31.7948 25.5649 31.7948 25.5643 31.7948 25.5637C31.7948 25.5631 31.7948 25.5625 31.7948 25.5619C31.7948 25.5613 31.7948 25.5607 31.7948 25.5602C31.7948 25.5596 31.7948 25.559 31.7948 25.5584C31.7948 25.5578 31.7948 25.5572 31.7948 25.5566C31.7948 25.556 31.7948 25.5554 31.7948 25.5548C31.7948 25.5542 31.7948 25.5536 31.7948 25.553C31.7948 25.5524 31.7948 25.5518 31.7948 25.5512C31.7948 25.5507 31.7948 25.5501 31.7948 25.5495C31.7948 25.5489 31.7948 25.5483 31.7948 25.5477C31.7948 25.5471 31.7948 25.5465 31.7948 25.5459C31.7948 25.5453 31.7948 25.5447 31.7948 25.5441C31.7948 25.5435 31.7948 25.5429 31.7948 25.5423C31.7948 25.5417 31.7948 25.5411 31.7948 25.5406C31.7948 25.54 31.7948 25.5394 31.7948 25.5388C31.7948 25.5382 31.7948 25.5376 31.7948 25.537C31.7948 25.5364 31.7948 25.5358 31.7948 25.5352C31.7948 25.5346 31.7948 25.534 31.7948 25.5334C31.7948 25.5328 31.7948 25.5322 31.7948 25.5316C31.7948 25.5311 31.7948 25.5305 31.7948 25.5299C31.7948 25.5293 31.7948 25.5287 31.7948 25.5281C31.7948 25.5275 31.7948 25.5269 31.7948 25.5263C31.7948 25.5257 31.7948 25.5251 31.7948 25.5245C31.7948 25.5239 31.7948 25.5233 31.7948 25.5227C31.7948 25.5221 31.7948 25.5215 31.7948 25.521C31.7948 25.5204 31.7948 25.5198 31.7948 25.5192C31.7948 25.5186 31.7948 25.518 31.7948 25.5174C31.7948 25.5168 31.7948 25.5162 31.7948 25.5156C31.7948 25.515 31.7948 25.5144 31.7948 25.5138C31.7948 25.5132 31.7948 25.5126 31.7948 25.512C31.7948 25.5115 31.7948 25.5109 31.7948 25.5103C31.7948 25.5097 31.7948 25.5091 31.7948 25.5085C31.7948 25.5079 31.7948 25.5073 31.7948 25.5067C31.7948 25.5061 31.7948 25.5055 31.7948 25.5049C31.7948 25.5043 31.7948 25.5037 31.7948 25.5031C31.7948 25.5025 31.7948 25.5019 31.7948 25.5014C31.7948 25.5008 31.7948 25.5002 31.7948 25.4996C31.7948 25.499 31.7948 25.4984 31.7948 25.4978C31.7948 25.4972 31.7948 25.4966 31.7948 25.496C31.7948 25.4954 31.7948 25.4948 31.7948 25.4942C31.7948 25.4936 31.7948 25.493 31.7948 25.4924C31.7948 25.4919 31.7948 25.4913 31.7948 25.4907C31.7948 25.4901 31.7948 25.4895 31.7948 25.4889C31.7948 25.4883 31.7948 25.4877 31.7948 25.4871C31.7948 25.4865 31.7948 25.4859 31.7948 25.4853C31.7948 25.4847 31.7948 25.4841 31.7948 25.4835C31.7948 25.4829 31.7948 25.4823 31.7948 25.4818C31.7948 25.4812 31.7948 25.4806 31.7948 25.48C31.7948 25.4794 31.7948 25.4788 31.7948 25.4782C31.7948 25.4776 31.7948 25.477 31.7948 25.4764C31.7948 25.4758 31.7948 25.4752 31.7948 25.4746C31.7948 25.474 31.7948 25.4734 31.7948 25.4728C31.7948 25.4723 31.7948 25.4717 31.7948 25.4711C31.7948 25.4705 31.7948 25.4699 31.7948 25.4693C31.7948 25.4687 31.7948 25.4681 31.7948 25.4675C31.7948 25.4669 31.7948 25.4663 31.7948 25.4657C31.7948 25.4651 31.7948 25.4645 31.7948 25.4639C31.7948 25.4633 31.7948 25.4627 31.7948 25.4622C31.7948 25.4616 31.7948 25.461 31.7948 25.4604C31.7948 25.4598 31.7948 25.4592 31.7948 25.4586C31.7948 25.458 31.7948 25.4574 31.7948 25.4568C31.7948 25.4562 31.7948 25.4556 31.7948 25.455C31.7948 25.4544 31.7948 25.4538 31.7948 25.4532C31.7948 25.4527 31.7948 25.4521 31.7948 25.4515C31.7948 25.4509 31.7948 25.4503 31.7948 25.4497C31.7948 25.4491 31.7948 25.4485 31.7948 25.4479C31.7948 25.4473 31.7948 25.4467 31.7948 25.4461C31.7948 25.4455 31.7948 25.4449 31.7948 25.4443C31.7948 25.4437 31.7948 25.4431 31.7948 25.4426C31.7948 25.442 31.7948 25.4414 31.7948 25.4408C31.7948 25.4402 31.7948 25.4396 31.7948 25.439C31.7948 25.4384 31.7948 25.4378 31.7948 25.4372C31.7948 25.4366 31.7948 25.436 31.7948 25.4354C31.7948 25.4348 31.7948 25.4342 31.7948 25.4336C31.7948 25.4331 31.7948 25.4325 31.7948 25.4319C31.7948 25.4313 31.7948 25.4307 31.7948 25.4301C31.7948 25.4295 31.7948 25.4289 31.7948 25.4283C31.7948 25.4277 31.7948 25.4271 31.7948 25.4265C31.7948 25.4259 31.7948 25.4253 31.7948 25.4247C31.7948 25.4241 31.7948 25.4235 31.7948 25.423C31.7948 25.4224 31.7948 25.4218 31.7948 25.4212C31.7948 25.4206 31.7948 25.42 31.7948 25.4194C31.7948 25.4188 31.7948 25.4182 31.7948 25.4176C31.7948 25.417 31.7948 25.4164 31.7948 25.4158C31.7948 25.4152 31.7948 25.4146 31.7948 25.414C31.7948 25.4135 31.7948 25.4129 31.7948 25.4123C31.7948 25.4117 31.7948 25.4111 31.7948 25.4105C31.7948 25.4099 31.7948 25.4093 31.7948 25.4087C31.7948 25.4081 31.7948 25.4075 31.7948 25.4069C31.7948 25.4063 31.7948 25.4057 31.7948 25.4051C31.7948 25.4045 31.7948 25.4039 31.7948 25.4034C31.7948 25.4028 31.7948 25.4022 31.7948 25.4016C31.7948 25.401 31.7948 25.4004 31.7948 25.3998C31.7948 25.3992 31.7948 25.3986 31.7948 25.398C31.7948 25.3974 31.7948 25.3968 31.7948 25.3962C31.7948 25.3956 31.7948 25.395 31.7948 25.3944C31.7948 25.3939 31.7948 25.3933 31.7948 25.3927C31.7948 25.3921 31.7948 25.3915 31.7948 25.3909C31.7948 25.3903 31.7948 25.3897 31.7948 25.3891C31.7948 25.3885 31.7948 25.3879 31.7948 25.3873C31.7948 25.3867 31.7948 25.3861 31.7948 25.3855C31.7948 25.3849 31.7948 25.3844 31.7948 25.3838C31.7948 25.3832 31.7948 25.3826 31.7948 25.382C31.7948 25.3814 31.7948 25.3808 31.7948 25.3802C31.7948 25.3796 31.7948 25.379 31.7948 25.3784C31.7948 25.3778 31.7948 25.3772 31.7948 25.3766C31.7948 25.376 31.7948 25.3754 31.7948 25.3748C31.7948 25.3743 31.7948 25.3737 31.7948 25.3731C31.7948 25.3725 31.7948 25.3719 31.7948 25.3713C31.7948 25.3707 31.7948 25.3701 31.7948 25.3695C31.7948 25.3689 31.7948 25.3683 31.7948 25.3677C31.7948 25.3671 31.7948 25.3665 31.7948 25.3659C31.7948 25.3653 31.7948 25.3648 31.7948 25.3642C31.7948 25.3636 31.7948 25.363 31.7948 25.3624C31.7948 25.3618 31.7948 25.3612 31.7948 25.3606C31.7948 25.36 31.7948 25.3594 31.7948 25.3588C31.7948 25.3582 31.7948 25.3576 31.7948 25.357C31.7948 25.3564 31.7948 25.3558 31.7948 25.3552C31.7948 25.3547 31.7948 25.3541 31.7948 25.3535C31.7948 25.3529 31.7948 25.3523 31.7948 25.3517C31.7948 25.3511 31.7948 25.3505 31.7948 25.3499C31.7948 25.3493 31.7948 25.3487 31.7948 25.3481C31.7948 25.3475 31.7948 25.3469 31.7948 25.3463C31.7948 25.3457 31.7948 25.3452 31.7948 25.3446C31.7948 25.344 31.7948 25.3434 31.7948 25.3428C31.7948 25.3422 31.7948 25.3416 31.7948 25.341C31.7948 25.3404 31.7948 25.3398 31.7948 25.3392C31.7948 25.3386 31.7948 25.338 31.7948 25.3374C31.7948 25.3368 31.7948 25.3362 31.7948 25.3356C31.7948 25.3351 31.7948 25.3345 31.7948 25.3339C31.7948 25.3333 31.7948 25.3327 31.7948 25.3321C31.7948 25.3315 31.7948 25.3309 31.7948 25.3303C31.7948 25.3297 31.7948 25.3291 31.7948 25.3285C31.7948 25.3279 31.7948 25.3273 31.7948 25.3267C31.7948 25.3261 31.7948 25.3256 31.7948 25.325C31.7948 25.3244 31.7948 25.3238 31.7948 25.3232C31.7948 25.3226 31.7948 25.322 31.7948 25.3214C31.7948 25.3208 31.7948 25.3202 31.7948 25.3196C31.7948 25.319 31.7948 25.3184 31.7948 25.3178C31.7948 25.3172 31.7948 25.3166 31.7948 25.316C31.7948 25.3155 31.7948 25.3149 31.7948 25.3143C31.7948 25.3137 31.7948 25.3131 31.7948 25.3125C31.7948 25.3119 31.7948 25.3113 31.7948 25.3107C31.7948 25.3101 31.7948 25.3095 31.7948 25.3089C31.7948 25.3083 31.7948 25.3077 31.7948 25.3071C31.7948 25.3065 31.7948 25.306 31.7948 25.3054C31.7948 25.3048 31.7948 25.3042 31.7948 25.3036C31.7948 25.303 31.7948 25.3024 31.7948 25.3018C31.7948 25.3012 31.7948 25.3006 31.7948 25.3C31.7948 25.2994 31.7948 25.2988 31.7948 25.2982C31.7948 25.2976 31.7948 25.297 31.7948 25.2964C31.7948 25.2959 31.7948 25.2953 31.7948 25.2947C31.7948 25.2941 31.7948 25.2935 31.7948 25.2929C31.7948 25.2923 31.7948 25.2917 31.7948 25.2911C31.7948 25.2905 31.7948 25.2899 31.7948 25.2893C31.7948 25.2887 31.7948 25.2881 31.7948 25.2875C31.7948 25.2869 31.7948 25.2864 31.7948 25.2858C31.7948 25.2852 31.7948 25.2846 31.7948 25.284C31.7948 25.2834 31.7948 25.2828 31.7948 25.2822C31.7948 25.2816 31.7948 25.281 31.7948 25.2804C31.7948 25.2798 31.7948 25.2792 31.7948 25.2786C31.7948 25.278 31.7948 25.2774 31.7948 25.2768C31.7948 25.2763 31.7948 25.2757 31.7948 25.2751C31.7948 25.2745 31.7948 25.2739 31.7948 25.2733C31.7948 25.2727 31.7948 25.2721 31.7948 25.2715C31.7948 25.2709 31.7948 25.2703 31.7948 25.2697C31.7948 25.2691 31.7948 25.2685 31.7948 25.2679C31.7948 25.2673 31.7948 25.2668 31.7948 25.2662C31.7948 25.2656 31.7948 25.265 31.7948 25.2644C31.7948 25.2638 31.7948 25.2632 31.7948 25.2626C31.7948 25.262 31.7948 25.2614 31.7948 25.2608C31.7948 25.2602 31.7948 25.2596 31.7948 25.259C31.7948 25.2584 31.7948 25.2578 31.7948 25.2572C31.7948 25.2567 31.7948 25.2561 31.7948 25.2555C31.7948 25.2549 31.7948 25.2543 31.7948 25.2537C31.7948 25.2531 31.7948 25.2525 31.7948 25.2519C31.7948 25.2513 31.7948 25.2507 31.7948 25.2501C31.7948 25.2495 31.7948 25.2489 31.7948 25.2483C31.7948 25.2477 31.7948 25.2472 31.7948 25.2466C31.7948 25.246 31.7948 25.2454 31.7948 25.2448C31.7948 25.2442 31.7948 25.2436 31.7948 25.243C31.7948 25.2424 31.7948 25.2418 31.7948 25.2412C31.7948 25.2406 31.7948 25.24 31.7948 25.2394C31.7948 25.2388 31.7948 25.2382 31.7948 25.2376C31.7948 25.2371 31.7948 25.2365 31.7948 25.2359C31.7948 25.2353 31.7948 25.2347 31.7948 25.2341C31.7948 25.2335 31.7948 25.2329 31.7948 25.2323C31.7948 25.2317 31.7948 25.2311 31.7948 25.2305C31.7948 25.2299 31.7948 25.2293 31.7948 25.2287C31.7948 25.2281 31.7948 25.2276 31.7948 25.227C31.7948 25.2264 31.7948 25.2258 31.7948 25.2252C31.7948 25.2246 31.7948 25.224 31.7948 25.2234C31.7948 25.2228 31.7948 25.2222 31.7948 25.2216C31.7948 25.221 31.7948 25.2204 31.7948 25.2198C31.7948 25.2192 31.7948 25.2186 31.7948 25.2181C31.7948 25.2175 31.7948 25.2169 31.7948 25.2163C31.7948 25.2157 31.7948 25.2151 31.7948 25.2145C31.7948 25.2139 31.7948 25.2133 31.7948 25.2127C31.7948 25.2121 31.7948 25.2115 31.7948 25.2109C31.7948 25.2103 31.7948 25.2097 31.7948 25.2091H30.2948ZM22.0359 59.4704V60.9704H52.6544V59.4704V57.9704H22.0359V59.4704ZM52.6544 59.4704V60.9704C56.4383 60.9704 59.5544 58.1822 60.176 54.554L58.6975 54.3008L57.219 54.0475C56.8334 56.2985 54.9136 57.9704 52.6544 57.9704V59.4704ZM58.6975 54.3008L60.1801 54.5285L63.4031 33.546L61.9205 33.3183L60.4379 33.0906L57.2149 54.073L58.6975 54.3008ZM61.9205 33.3183L63.4014 33.5569C64.1593 28.8533 60.4853 24.8241 55.8774 24.8241V26.3241V27.8241C58.7226 27.8241 60.8903 30.2824 60.4396 33.0797L61.9205 33.3183ZM55.8774 26.3241V24.8241H28.9854V26.3241V27.8241H55.8774V26.3241ZM28.9854 26.3241V24.8241C25.2015 24.8241 22.0854 27.6123 21.4639 31.2405L22.9423 31.4937L24.4208 31.747C24.8064 29.496 26.7262 27.8241 28.9854 27.8241V26.3241ZM22.9423 31.4937L21.4598 31.2655L18.1361 52.8562L19.6186 53.0844L21.1011 53.3126L24.4249 31.722L22.9423 31.4937ZM19.6186 53.0844L18.1308 52.8936L17.7279 56.0359L19.2157 56.2267L20.7035 56.4174L21.1064 53.2751L19.6186 53.0844ZM48.6256 17.6068V16.1068H39.5609V17.6068V19.1068H48.6256V17.6068ZM39.5609 17.6068V19.1068H43.8918V17.6068V16.1068H39.5609V17.6068ZM43.8918 17.6068H45.3918V7.26762H43.8918H42.3918V17.6068H43.8918ZM43.8918 7.26762V5.76762H39.5609V7.26762V8.76762H43.8918V7.26762ZM43.9925 3.21304H45.4925V0.476196H43.9925H42.4925V3.21304H43.9925ZM46.5105 43.1507L45.0291 42.9151C44.7555 44.6364 42.9411 46.2121 40.7696 46.2121V47.7121V49.2121C44.2382 49.2121 47.4598 46.7331 47.9919 43.3862L46.5105 43.1507ZM40.7696 47.7121V46.2121C39.7201 46.2121 38.9481 45.8393 38.4842 45.3498C38.0307 44.8714 37.7904 44.2019 37.92 43.3862L36.4386 43.1507L34.9572 42.9151C34.6841 44.6335 35.1991 46.2448 36.3068 47.4135C37.404 48.5712 38.9989 49.2121 40.7696 49.2121V47.7121ZM36.4386 43.1507L37.92 43.3862C38.1913 41.6796 40.0926 40.0893 42.1796 40.0893V38.5893V37.0893C38.8278 37.0893 35.4917 39.5535 34.9572 42.9151L36.4386 43.1507ZM42.1796 38.5893V40.0893C44.0996 40.0893 45.2054 41.4273 45.0211 42.9731L46.5105 43.1507L48 43.3283C48.42 39.8058 45.6985 37.0893 42.1796 37.0893V38.5893ZM17 52.9762L16.9381 54.4749L19.5567 54.5831L19.6186 53.0844L19.6805 51.5857L17.0619 51.4775L17 52.9762ZM22.7409 59.4704V57.9704H12.671V59.4704V60.9704H22.7409V59.4704ZM12.671 59.4704V57.9704C12.5326 57.9704 12.3972 57.9059 12.3057 57.7947C12.2249 57.6966 12.1763 57.5611 12.2194 57.3728L10.7574 57.0376L9.29533 56.7024C8.76631 59.0095 10.5506 60.9704 12.671 60.9704V59.4704ZM10.7574 57.0376L12.2262 57.3417L12.7298 54.9089L11.261 54.6049L9.79212 54.3008L9.28853 56.7335L10.7574 57.0376ZM11.261 54.6049L12.7257 54.9283C12.754 54.8 12.8286 54.6773 12.9297 54.5906C13.0294 54.5051 13.1191 54.483 13.1746 54.483V52.983V51.483C11.4839 51.483 10.1314 52.7636 9.79626 54.2814L11.261 54.6049ZM13.1746 52.983L13.176 54.483L17.0834 54.4796L17.0821 52.9796L17.0807 51.4796L13.1733 51.483L13.1746 52.983Z" fill="#F0F2F4"/>
</svg>
