<svg width="20" height="20" viewBox="0 0 20 20" fill="none" xmlns="http://www.w3.org/2000/svg">
<path d="M2.19995 4.89988H3.97773M3.97773 4.89988H18.2M3.97773 4.89988V16.7999C3.97773 17.2507 4.16503 17.6831 4.49843 18.002C4.83183 18.3208 5.28401 18.4999 5.75551 18.4999H14.6444C15.1159 18.4999 15.5681 18.3208 15.9015 18.002C16.2349 17.6831 16.4222 17.2507 16.4222 16.7999V4.89988M6.6444 4.89988V3.19988C6.6444 2.74901 6.8317 2.31661 7.1651 1.9978C7.49849 1.67898 7.95068 1.49988 8.42217 1.49988H11.9777C12.4492 1.49988 12.9014 1.67898 13.2348 1.9978C13.5682 2.31661 13.7555 2.74901 13.7555 3.19988V4.89988M8.42217 9.14988V14.2499M11.9777 9.14988V14.2499" stroke="#424242" stroke-linecap="round" stroke-linejoin="round"/>
</svg>
