<svg width="24" height="21" viewBox="0 0 24 21" fill="none" xmlns="http://www.w3.org/2000/svg">
<path d="M16.0159 14.6892L11.9902 10.5164M11.9902 10.5164L7.96446 14.6892M11.9902 10.5164V20M20.8956 16.8388C21.7495 16.2066 22.3595 15.3214 22.7255 14.1834C23.0914 13.1718 23.0914 12.0338 22.7255 10.8958C22.3595 9.88421 21.7495 8.87263 20.8956 8.24039C20.0416 7.60816 19.0657 7.22881 17.9678 7.22881H16.7479C16.5039 5.96434 15.8939 4.82631 15.162 3.81474C14.43 2.80316 13.4541 2.04447 12.3562 1.53868C11.1362 1.15934 9.91633 0.906445 8.69642 1.03289C7.4765 1.03289 6.25658 1.41223 5.28065 2.04447C4.18272 2.55026 3.20679 3.43539 2.59683 4.44697C1.86488 5.45855 1.37691 6.72302 1.13293 7.86105C0.888947 9.12553 1.01094 10.39 1.25492 11.6545C1.6209 12.9189 2.10886 14.057 2.96281 14.9421" stroke-width="2" stroke-linecap="round" stroke-linejoin="round"/>
</svg>
