<svg width="20" height="20" viewBox="0 0 20 20" fill="none" xmlns="http://www.w3.org/2000/svg">
<path d="M9.29162 14.6667V15.3333C9.29162 15.5101 9.21699 15.6797 9.08416 15.8047C8.95132 15.9298 8.77115 16 8.58329 16H7.16663V16.6667C7.16663 17.0203 7.01738 17.3594 6.7517 17.6095C6.48603 17.8595 6.1257 18 5.74998 18H2.91666C2.54094 18 2.1806 17.8595 1.91493 17.6095C1.64925 17.3594 1.5 17.0203 1.5 16.6667V14.9427C1.50008 14.5891 1.64939 14.25 1.91508 14L7.39755 8.84C7.06138 7.76565 7.0931 6.61896 7.4882 5.56252C7.8833 4.50609 8.62173 3.59353 9.59878 2.95424C10.5758 2.31494 11.7419 1.98137 12.9317 2.0008C14.1215 2.02024 15.2746 2.39171 16.2275 3.06253C17.1804 3.73335 17.8847 4.66948 18.2406 5.73819C18.5965 6.80689 18.5859 7.95393 18.2104 9.01665C17.8348 10.0794 17.1133 11.0039 16.1481 11.659C15.183 12.3141 14.0232 12.6667 12.8333 12.6667H11.4152V14C11.4152 14.1768 11.3406 14.3464 11.2077 14.4714C11.0749 14.5964 10.8947 14.6667 10.7069 14.6667H9.29162ZM14.2499 7.33333C14.6256 7.33333 14.986 7.19286 15.2517 6.94281C15.5173 6.69276 15.6666 6.35362 15.6666 6C15.6666 5.64638 15.5173 5.30724 15.2517 5.05719C14.986 4.80714 14.6256 4.66667 14.2499 4.66667C13.8742 4.66667 13.5139 4.80714 13.2482 5.05719C12.9825 5.30724 12.8333 5.64638 12.8333 6C12.8333 6.35362 12.9825 6.69276 13.2482 6.94281C13.5139 7.19286 13.8742 7.33333 14.2499 7.33333Z" fill="#424242"/>
</svg>
