<svg width="35" height="17" viewBox="0 0 35 17" fill="none" xmlns="http://www.w3.org/2000/svg">
<path d="M32.0798 7.68936e-07L8.9349 1.59028e-06C8.48156 1.60636e-06 8.03444 0.0775239 7.62896 0.226427C7.22347 0.375328 6.87076 0.591518 6.59875 0.857881L0.584035 6.72005C0.20493 7.09129 -4.88928e-07 7.91921 -4.63942e-07 8.38326C-4.38957e-07 8.84731 0.204931 9.90871 0.584035 10.2799L6.59876 16.1421C6.87076 16.4085 7.22347 16.6247 7.62896 16.7736C8.03444 16.9225 8.48156 17 8.93491 17L32.0798 17C32.8543 17 33.5971 16.774 34.1447 16.3718C34.6923 15.9696 35 15.4241 35 14.8553C35 5.84757 35 12.1533 35 2.1447C35 1.57589 34.6923 1.03038 34.1447 0.628169C33.5971 0.22596 32.8543 7.41452e-07 32.0798 7.68936e-07Z" fill="#F26135"/>
</svg>
