<svg width="40" height="40" viewBox="0 0 40 40" fill="none" xmlns="http://www.w3.org/2000/svg">
<path d="M30.6849 17.4515C29.9545 17.8693 29.3752 18.2492 28.7581 18.5405C26.7055 19.5155 24.5143 19.984 22.2854 20.2626C18.1549 20.7817 14.0244 20.6551 9.9443 19.7814C7.94202 19.3509 6.01531 18.7304 4.27748 17.4135C4.2397 17.6414 4.20192 17.7934 4.20192 17.9453C4.20192 19.3129 4.20192 20.6931 4.18933 22.0607C4.18933 22.6178 4.4286 23.0737 4.84416 23.3649C5.4864 23.8334 6.15383 24.2893 6.87163 24.6058C9.33984 25.6948 11.9592 26.1507 14.6289 26.3659C15.5482 26.4419 16.4674 26.4419 17.3993 26.4799C17.8778 26.5052 18.0919 26.6698 18.0919 27.037C18.0919 27.4169 17.8527 27.6448 17.3615 27.6195C15.8126 27.5435 14.2511 27.5182 12.7147 27.303C11.1658 27.0877 9.62948 26.6952 8.10573 26.3279C6.83385 26.024 5.6627 25.4289 4.57971 24.6818C4.47897 24.6185 4.37823 24.5552 4.17674 24.4286C4.17674 24.9604 4.17674 25.4036 4.17674 25.8341C4.17674 26.8724 4.21452 27.9108 4.16415 28.9364C4.12637 29.7088 4.416 30.2913 5.00787 30.6585C5.8516 31.1904 6.7331 31.7222 7.66498 32.0514C11.1154 33.267 14.7044 33.5962 18.3312 33.5329C18.5579 33.5329 18.7971 33.5203 19.0238 33.5329C19.326 33.5583 19.5401 33.7355 19.5527 34.0521C19.5653 34.394 19.3512 34.5966 19.0238 34.6599C18.9482 34.6726 18.8601 34.6726 18.7719 34.6726C15.2333 34.7485 11.7199 34.5206 8.30722 33.5076C7.01015 33.1277 5.75085 32.6592 4.64268 31.8615C4.18933 31.5322 3.76117 31.127 3.45894 30.6585C3.19449 30.2407 3.0056 29.6835 3.0056 29.1897C2.993 22.2886 3.0056 15.3368 3.0056 8.39775C3.0056 7.34675 3.55969 6.587 4.32785 5.99186C5.41085 5.15613 6.64495 4.6243 7.94202 4.23176C10.8888 3.35804 13.8985 3.04148 16.9586 3.00349C20.1572 2.96551 23.3306 3.23142 26.4284 4.09247C27.8892 4.49768 29.287 5.05483 30.5211 5.9792C31.4152 6.65031 31.8686 7.4987 31.856 8.62567C31.8434 11.766 31.8434 14.919 31.8434 18.0719C31.8434 18.2619 31.8434 18.4518 31.8308 18.6418C31.793 19.1103 31.5915 19.3382 31.2515 19.3255C30.9115 19.3255 30.6974 19.0849 30.6849 18.6291C30.6723 18.2872 30.6849 17.9327 30.6849 17.4515ZM17.5126 12.4118C20.4468 12.3991 23.3306 12.1079 26.164 11.3101C27.5618 10.9176 28.9344 10.4364 30.0426 9.43608C30.8486 8.71431 30.8863 7.84059 30.0552 7.16948C29.4759 6.70096 28.8211 6.2831 28.1411 5.9792C25.9121 4.96619 23.5321 4.54833 21.1268 4.3204C18.6334 4.07981 16.14 4.09247 13.6466 4.3204C11.531 4.523 9.42799 4.86489 7.4509 5.66263C6.54421 6.02985 5.65011 6.49836 4.88194 7.0935C3.93747 7.80261 4.00044 8.70165 4.89454 9.49939C5.02047 9.61335 5.15899 9.70199 5.29751 9.80329C6.30494 10.5124 7.43831 10.9556 8.62204 11.2848C11.5184 12.0826 14.5029 12.3991 17.5126 12.4118ZM30.6219 10.5757C30.4456 10.677 30.3197 10.7403 30.1937 10.8036C29.3248 11.2215 28.4937 11.728 27.587 12.0446C25.1566 12.9183 22.638 13.3235 20.069 13.4754C17.0341 13.6654 14.0244 13.5767 11.0399 13.0196C8.72279 12.5891 6.43087 12.0319 4.45378 10.6517C4.40341 10.6137 4.31526 10.6264 4.18933 10.601C4.18933 11.9559 4.2397 13.2728 4.17674 14.5771C4.12637 15.5141 4.47897 16.1726 5.22195 16.6537C5.6627 16.945 6.09086 17.2742 6.5694 17.4515C7.74054 17.8947 8.92427 18.3632 10.1458 18.6291C13.6718 19.4268 17.2482 19.6041 20.8498 19.2622C22.915 19.0723 24.9677 18.7304 26.9322 18.0213C28.0026 17.6288 29.0604 17.2109 29.9293 16.4511C30.3448 16.0839 30.6849 15.6534 30.6849 15.0456C30.6849 13.7413 30.6849 12.4244 30.6849 11.1202C30.6849 10.9556 30.6471 10.791 30.6219 10.5757ZM24.9928 22.6938C25.3958 22.5292 25.761 22.3772 26.164 22.1999C26.2647 21.7061 26.3907 21.1996 26.4788 20.6804C26.5544 20.2119 26.8314 19.9713 27.2974 19.9713C28.0907 19.9587 28.8967 19.9333 29.69 19.9713C30.2819 19.9967 30.433 20.1613 30.5589 20.7691C30.6597 21.2376 30.7478 21.7188 30.8486 22.1873C31.2389 22.3519 31.6041 22.5165 32.0449 22.7064C32.3723 22.4785 32.7375 22.2253 33.0901 21.9847C33.7323 21.5541 33.9842 21.5541 34.5383 22.0607C35.0546 22.5418 35.5583 23.061 36.0117 23.6055C36.4902 24.1753 36.465 24.2893 36.0243 24.9351C35.785 25.2896 35.5709 25.6442 35.3316 26.024C35.4702 26.3786 35.6087 26.7331 35.7598 27.1383C36.2383 27.227 36.7169 27.3156 37.208 27.4169C37.7621 27.5309 37.951 27.6828 37.9762 28.24C38.0139 29.0757 38.0013 29.9241 37.9762 30.7598C37.9636 31.1904 37.7495 31.4563 37.2961 31.5323C36.805 31.6082 36.3139 31.7349 35.785 31.8362C35.6465 32.1907 35.4953 32.5706 35.3442 32.9884C35.6087 33.3936 35.8731 33.8242 36.1628 34.242C36.402 34.5966 36.4398 34.9638 36.1376 35.2804C35.5583 35.8882 34.979 36.496 34.3746 37.0785C34.0472 37.4077 33.682 37.4077 33.2916 37.1164C32.9012 36.8379 32.4982 36.5719 32.0449 36.2807C31.6671 36.4453 31.2641 36.6099 30.836 36.7872C30.7352 37.2937 30.6345 37.7876 30.5463 38.2941C30.4708 38.7246 30.2315 38.9778 29.7908 38.9905C28.947 39.0032 28.1159 39.0032 27.2722 38.9905C26.844 38.9905 26.567 38.7879 26.4914 38.332C26.4033 37.8382 26.2899 37.3444 26.1766 36.8125C25.8114 36.6479 25.4336 36.4706 25.018 36.2807C24.5899 36.5719 24.1491 36.8505 23.7336 37.1544C23.3684 37.4203 23.0284 37.4203 22.7135 37.1164C22.0839 36.496 21.4794 35.8628 20.875 35.2171C20.6105 34.9385 20.6357 34.6093 20.8498 34.2927C21.1394 33.8622 21.429 33.419 21.7061 33.0011C21.555 32.5959 21.4165 32.2414 21.2779 31.8615C20.7364 31.7475 20.2075 31.6336 19.6786 31.5323C19.326 31.4689 19.0868 31.2663 19.0868 30.8991C19.0616 29.9748 19.0616 29.0504 19.0868 28.126C19.0994 27.6702 19.4142 27.4802 19.8297 27.4169C20.3083 27.3409 20.7742 27.2523 21.2527 27.1763C21.4165 26.7711 21.5676 26.4039 21.7313 26.0114C21.4416 25.5682 21.1646 25.125 20.8624 24.6945C20.6357 24.3652 20.6231 24.0613 20.8876 23.7701C21.492 23.1243 22.0965 22.4912 22.7261 21.8707C23.0409 21.5668 23.4061 21.5921 23.7587 21.8454C24.1365 22.1366 24.5395 22.4025 24.9928 22.6938ZM23.1921 36.1161C23.6832 35.7742 24.0862 35.5083 24.4765 35.2171C24.7788 34.9891 25.0684 34.9765 25.4084 35.1411C25.8618 35.369 26.3277 35.5589 26.7936 35.7362C27.0833 35.8502 27.2344 36.0148 27.2848 36.3187C27.3603 36.8125 27.4737 37.3064 27.5744 37.8509C28.204 37.8509 28.8085 37.8509 29.4633 37.8509C29.5515 37.3444 29.6396 36.8885 29.7152 36.4327C29.7782 36.0654 29.9419 35.8375 30.3197 35.7109C30.7604 35.5716 31.1886 35.3817 31.5789 35.1537C31.9693 34.9385 32.2842 34.9765 32.6242 35.2297C32.9894 35.5083 33.3797 35.7615 33.8205 36.0654C34.2486 35.6223 34.6642 35.1917 35.0924 34.7612C34.8153 34.3307 34.6138 33.9508 34.362 33.6216C34.0598 33.2417 34.022 32.8871 34.2486 32.4566C34.4501 32.0894 34.6012 31.6969 34.7272 31.2917C34.8405 30.9118 35.042 30.7345 35.4198 30.6839C35.8983 30.6205 36.3643 30.5192 36.8554 30.4306C36.8554 29.7848 36.8554 29.177 36.8554 28.5312C36.3769 28.4426 35.9487 28.3539 35.5205 28.2906C35.0798 28.24 34.8027 28.05 34.6894 27.5815C34.6013 27.2017 34.4124 26.8218 34.2235 26.4799C34.022 26.1 34.022 25.7708 34.2864 25.4289C34.5635 25.0617 34.8153 24.6691 35.1302 24.2006C34.6768 23.7701 34.2361 23.3649 33.7575 22.909C33.3545 23.1876 32.9642 23.4535 32.5738 23.7321C32.2716 23.96 31.9819 23.9854 31.6419 23.8081C31.2515 23.6055 30.8486 23.3902 30.433 23.2889C29.9671 23.1623 29.7782 22.8964 29.7152 22.4532C29.6522 21.9973 29.5389 21.5541 29.4507 21.111C28.7833 21.111 28.1915 21.111 27.5744 21.111C27.4737 21.6428 27.3603 22.1113 27.2974 22.5925C27.247 22.9977 27.0329 23.1623 26.6677 23.2763C26.2647 23.4029 25.8744 23.5675 25.5092 23.7701C25.081 23.998 24.7284 23.9854 24.3506 23.6815C24.0106 23.4155 23.6328 23.175 23.255 22.909C22.7765 23.3649 22.3483 23.7828 21.9202 24.188C22.2602 24.6945 22.5372 25.125 22.8269 25.5302C23.0158 25.7961 23.0284 26.0494 22.8772 26.3533C22.6757 26.7458 22.4869 27.151 22.3735 27.5689C22.2476 28.0247 21.9957 28.24 21.5424 28.2906C21.089 28.3413 20.6483 28.4426 20.1823 28.5186C20.1823 29.2023 20.1823 29.7975 20.1823 30.4306C20.6987 30.5319 21.1772 30.6332 21.6431 30.6965C22.0335 30.7472 22.2224 30.9624 22.3483 31.317C22.4743 31.7095 22.6128 32.1147 22.8143 32.4819C23.0409 32.8998 22.9906 33.229 22.7261 33.5962C22.4491 33.9635 22.2224 34.356 21.9831 34.7106C22.3987 35.2171 22.7765 35.6602 23.1921 36.1161ZM28.5315 25.1123C30.6723 25.0237 32.9138 26.8344 32.9012 29.5569C32.8886 32.0388 30.9115 33.9128 28.4181 33.8875C26.0129 33.8495 24.1113 31.8615 24.1491 29.4176C24.1743 27.0117 26.1388 25.087 28.5315 25.1123ZM31.7175 29.5062C31.7175 27.6702 30.2945 26.2646 28.4685 26.2773C26.7433 26.2899 25.2951 27.7461 25.2951 29.4683C25.2951 31.279 26.7433 32.7352 28.5315 32.7352C30.3197 32.7352 31.7175 31.3043 31.7175 29.5062Z" fill="#424242"/>
</svg>
