<svg width="38" height="35" viewBox="0 0 38 35" fill="none" xmlns="http://www.w3.org/2000/svg">
<path d="M9.23859 13.2754C9.10327 13.628 8.86954 13.9441 8.52509 14.2115C8.18064 14.479 7.8608 14.6613 7.56556 14.7586V15.7798C8.13143 15.5974 8.6112 15.3178 9.02946 14.9288V19.1594H10.1612V13.2754H9.23859ZM14.9712 16.9955C14.8728 17.421 14.7006 17.7371 14.4791 17.9437C14.2454 18.1382 13.9747 18.2477 13.6549 18.2477C13.2243 18.2477 12.8799 18.0896 12.6093 17.7735C12.3386 17.4575 12.2033 16.9347 12.2033 16.1931C12.2033 15.5002 12.3386 14.9896 12.6093 14.6735C12.8799 14.3574 13.2366 14.2115 13.6795 14.2115C13.9994 14.2115 14.27 14.2966 14.4914 14.479C14.7129 14.6492 14.8605 14.8923 14.9343 15.1962L16.1152 14.9166C15.9799 14.4425 15.7831 14.09 15.5125 13.8347C15.0573 13.4092 14.4668 13.2025 13.7533 13.2025C12.9291 13.2025 12.2525 13.47 11.7481 14.017C11.2438 14.5519 10.9854 15.3178 10.9854 16.2904C10.9854 17.2143 11.2438 17.9316 11.7481 18.4665C12.2525 19.0014 12.5108 19.2688 13.6918 19.2688C14.3315 19.2688 14.8482 19.1108 15.2664 18.8069C15.6847 18.503 15.9799 18.0167 16.1522 17.3845L14.9712 16.9955ZM18.3419 13.1782V14.3939H29.0567V13.1782H18.3419ZM18.3419 18.041V19.2567H29.0567V18.041H18.3419ZM7.8485 22.8795V24.0952H29.0567V22.8795H7.8485ZM7.8485 27.7423V28.958H29.0567V27.7423H7.8485ZM37.3849 33.7843H33.5345V10.2605H32.3043V33.7843H4.90838V7.99931H12.0188V1.2157H15.3771V0H11.1454L3.67821 7.3793V33.7843H0.615086C0.270638 33.7843 0 34.0518 0 34.3922C0 34.7325 0.270638 35 0.615086 35H37.3849C37.7294 35 38 34.7325 38 34.3922C38 34.0518 37.7171 33.7843 37.3849 33.7843ZM10.7886 2.07885V6.79576H6.01554L10.7886 2.07885ZM21.3681 0.717263C20.8883 0.255297 20.3101 0.036471 19.6212 0.036471H17.7637C17.5545 0.036471 17.4069 0.097256 17.2962 0.230983C17.1978 0.352553 17.1363 0.48628 17.1363 0.620007C17.1363 0.778048 17.1855 0.923932 17.2962 1.0455C17.4192 1.15491 17.5669 1.20354 17.7514 1.20354H19.6089C19.9657 1.20354 20.2609 1.31296 20.4947 1.54394C20.7284 1.77492 20.8391 2.04238 20.8391 2.37061V2.89337H18.9938C18.797 2.89337 18.6494 2.95415 18.5387 3.07572C18.428 3.19729 18.3788 3.33102 18.3788 3.4769C18.3788 3.63494 18.428 3.78083 18.5387 3.89024C18.6617 3.99965 18.8093 4.06044 18.9938 4.06044H20.8391V4.5224C20.8391 4.8628 20.7161 5.14241 20.4824 5.36124C20.2363 5.58006 19.9534 5.68948 19.6089 5.68948H17.7514C17.5546 5.68948 17.4069 5.75026 17.2962 5.87183C17.1855 5.9934 17.1363 6.12713 17.1363 6.27301C17.1363 6.43105 17.1855 6.57694 17.2962 6.68635C17.4192 6.79576 17.5669 6.85655 17.7514 6.85655H19.6089C20.2855 6.85655 20.876 6.62556 21.3558 6.1636C21.8355 5.70163 22.0816 5.15457 22.0816 4.51025V2.37061C22.0816 1.72629 21.8478 1.16707 21.3681 0.717263ZM27.3959 5.67732H25.6614C25.5138 5.67732 25.3538 5.653 25.1816 5.59222C25.0463 5.53143 24.911 5.44634 24.788 5.33692C24.5542 5.10594 24.4312 4.82633 24.4312 4.49809V2.37061C24.4312 2.21257 24.4558 2.05453 24.5173 1.92081C24.5788 1.77492 24.6649 1.65335 24.7757 1.54394C25.0217 1.32511 25.3169 1.2157 25.6614 1.2157H27.3959C27.6051 1.2157 27.7527 1.15491 27.8634 1.02119C27.9618 0.887461 28.0233 0.765891 28.0233 0.632164C28.0233 0.48628 27.9618 0.352553 27.8388 0.230983C27.7158 0.109413 27.5681 0.048628 27.3959 0.048628H25.6614C24.9725 0.048628 24.3943 0.279611 23.9145 0.72942C23.4348 1.17923 23.201 1.73845 23.201 2.38277V4.53456C23.201 5.19104 23.4471 5.7381 23.9268 6.18791C24.4189 6.63772 24.9971 6.8687 25.6614 6.8687H27.3959C27.6051 6.8687 27.7527 6.80792 27.8634 6.67419C27.9618 6.54047 28.0233 6.4189 28.0233 6.28517C28.0233 6.13928 27.9618 6.00556 27.8388 5.88399C27.7158 5.7381 27.5681 5.67732 27.3959 5.67732ZM37.0159 2.11532C36.819 1.70198 36.6837 1.44668 36.3393 1.11844C35.6135 0.425495 34.617 0.206669 33.596 0.206669H32.1198C31.0987 0.206669 30.1023 0.437652 29.3765 1.1306C28.6507 1.82355 28.417 2.57728 28.417 3.52553C28.417 4.51025 28.6507 5.26398 29.3765 5.94477C30.1023 6.62556 30.7174 6.84439 31.7507 6.84439H32.2428V7.74401C32.2428 7.93852 32.3043 8.0844 32.4273 8.18166C32.5503 8.27892 32.698 8.32754 32.8579 8.32754C33.0424 8.32754 33.19 8.27892 33.3007 8.18166C33.4238 8.07225 33.473 7.92636 33.473 7.74401V6.84439H33.596C34.617 6.84439 35.6258 6.61341 36.3393 5.92046C37.0528 5.22751 37.2988 4.47378 37.2988 3.52553C37.2988 3.02709 37.2004 2.52866 37.0159 2.11532ZM32.2428 5.66516H32.1198C31.4432 5.66516 30.7297 5.55575 30.2499 5.09378C29.7702 4.63182 29.6471 4.15769 29.6471 3.51337C29.6471 2.85689 29.7702 2.38277 30.2499 1.92081C30.742 1.471 31.4432 1.36158 32.1075 1.36158H32.2305V5.66516H32.2428ZM36.0686 3.51337C36.0686 4.15769 35.9456 4.64397 35.4658 5.09378C34.9861 5.55575 34.2849 5.653 33.596 5.653H33.473V1.37374H33.596C34.2849 1.37374 34.9984 1.48315 35.4781 1.95728C35.9579 2.41924 36.0686 2.89337 36.0686 3.51337Z" fill="#424242"/>
</svg>
