<svg width="111" height="65" viewBox="0 0 111 65" fill="none" xmlns="http://www.w3.org/2000/svg">
<path d="M62.2011 65.1831C59.8844 65.0378 57.2131 64.6557 55.1062 64.0817C54.7115 63.974 53.0774 63.409 52.6618 63.2296C45.3266 60.033 40.2166 53.0551 40.2166 44.9596C40.2166 33.856 49.8188 24.8116 61.6291 24.8116C73.3344 24.8116 82.8719 33.7017 83.0358 44.6798H90.7714C90.6074 29.6907 77.6017 17.543 61.6291 17.543C45.5611 17.543 32.4829 29.8396 32.4829 44.9596C32.4829 55.3835 38.7141 64.4494 47.8377 69.081C49.4852 69.9008 51.8495 70.7457 52.6522 70.9771C55.253 71.7053 58.4448 72.1897 61.2859 72.3924C62.2507 72.4605 65.6198 72.4964 66.6018 72.5H119.872V65.2512H66.6914C65.984 65.2512 62.8932 65.2261 62.2011 65.1831ZM66.6914 53.8013C66.1289 53.8013 63.1869 53.7834 62.6434 53.7403C61.7225 53.6668 60.3878 53.5376 59.5298 53.3529C58.5611 53.1089 57.6516 52.786 57.2417 52.5744C54.3683 51.1124 52.4101 48.2531 52.4101 44.9596C52.4101 40.1684 56.5343 36.283 61.6291 36.283C66.6171 36.283 70.6726 40.0159 70.8347 44.6798H78.2671C78.1108 36.1592 70.7279 29.2925 61.6291 29.2925C52.4291 29.2925 44.9719 36.3063 44.9719 44.9596C44.9719 51.0622 48.69 56.3324 54.1051 58.9137C54.9384 59.3729 56.5057 59.8536 56.9519 59.9631C58.4811 60.3416 60.5346 60.5999 62.2011 60.7147C62.817 60.7631 65.8334 60.7846 66.4702 60.7882V60.799H119.87V53.8013H66.6914ZM27.7161 72.4731H19.9291V24.8277H8.54974V17.5H27.7161V72.4731ZM0 28.4889V35.535H8.54974V72.4731H16.0317V28.4889H0Z" fill="#D91920"/>
</svg>
