<svg width="40" height="40" viewBox="0 0 40 40" fill="none" xmlns="http://www.w3.org/2000/svg">
<path d="M4.29244 33.0585C4.82988 33.0585 5.26496 33.0585 5.70004 33.0585C11.5736 33.0585 9.84607 33.0715 15.7196 33.0324C16.513 33.0324 17.3064 32.7978 18.3429 32.6283C18.3813 32.7847 18.5988 33.2279 18.4964 33.5407C18.3941 33.8535 17.9718 34.1142 17.6391 34.2446C17.3192 34.3749 16.9225 34.3097 16.5514 34.3097C10.2683 34.3097 11.5864 34.3097 5.30335 34.3097C4.98344 34.3097 4.65073 34.3228 4.33082 34.2837C3.48626 34.1794 3.12796 33.8144 3.02559 32.9412C3 32.6935 3 32.4459 3 32.1982C3 22.5009 3.0128 15.267 3.0128 5.56969C3.0128 5.49149 3.0128 5.40025 3.0128 5.32204C3.06398 3.32784 4.24125 2.03747 6.1863 2.02443C13.4802 1.99837 22.2586 1.99837 29.5525 2.02443C31.2928 2.02443 32.4829 2.97592 32.7772 4.61821C33.0843 6.36477 32.9563 8.13739 32.7388 10.0925C31.1009 10.0925 29.5013 10.0925 27.761 10.0925C27.761 11.1874 27.761 12.0737 27.761 12.973C27.761 14.3807 27.7738 14.4719 27.7738 15.8796C27.7738 16.3228 27.697 16.7659 27.1724 16.792C26.6349 16.8181 26.5454 16.3749 26.5454 15.9317C26.5581 11.8391 26.5581 9.06281 26.6093 4.97013C26.6093 4.4618 26.8781 3.9665 27.0572 3.32784C26.6093 3.30177 26.1871 3.26267 25.7648 3.26267C20.0064 3.2366 12.7764 3.22356 7.01807 3.21053C6.77493 3.21053 6.5318 3.21053 6.28867 3.22356C4.88107 3.34087 4.25405 4.00561 4.25405 5.46542C4.24125 8.35897 4.25405 11.2395 4.25405 14.133C4.25405 20.8977 4.24125 25.1989 4.24125 31.9636C4.24125 32.2634 4.26684 32.5371 4.29244 33.0585ZM31.6767 8.91944C31.6767 7.58997 31.7279 6.39083 31.6639 5.20474C31.5999 4.09684 30.8961 3.39301 29.9236 3.3148C28.8999 3.2366 27.9657 3.8101 27.8762 4.81372C27.761 6.14319 27.8506 7.49873 27.8506 8.91944C29.1302 8.91944 30.3203 8.91944 31.6767 8.91944ZM17.959 6.54724C15.7452 9.4408 13.5442 12.3344 11.356 15.254C11.0617 15.645 10.4859 16.1533 11.1001 16.6226C11.7655 17.1309 12.0982 16.414 12.4181 15.9839C14.2352 13.6117 16.0395 11.2265 17.8438 8.85427C18.2917 8.26774 18.7396 7.69424 19.1746 7.08164C19.5457 6.56028 19.405 6.15622 18.6756 5.85644C18.4196 6.10409 18.1509 6.2996 17.959 6.54724ZM9.33421 8.41111C9.30862 6.97737 10.4347 5.83037 11.8551 5.83037C13.2371 5.83037 14.2992 6.9122 14.3248 8.31987C14.3504 9.74058 13.2243 10.9658 11.8679 10.9918C10.4603 11.0049 9.34701 9.88396 9.33421 8.41111ZM13.0196 8.35897C13.0196 7.75941 12.4565 7.13377 11.8935 7.10771C11.2665 7.0686 10.6522 7.66817 10.6266 8.34594C10.6139 9.01067 11.1769 9.63631 11.8167 9.66238C12.4053 9.68844 13.0196 9.03674 13.0196 8.35897ZM18.4068 17.0136C16.9225 16.9875 15.8988 15.9057 15.9371 14.4198C15.9755 12.973 17.0248 11.9173 18.4068 11.9564C19.8912 11.9824 20.9277 13.0773 20.8893 14.5501C20.851 15.9708 19.7889 17.0396 18.4068 17.0136ZM19.6097 14.5632C19.6353 13.8463 19.149 13.2598 18.4708 13.2207C17.7542 13.1816 17.2296 13.6899 17.2296 14.4198C17.2296 15.0845 17.8054 15.7102 18.4324 15.7232C19.0467 15.7493 19.5841 15.2149 19.6097 14.5632ZM13.9921 25.7594C13.1347 25.7594 10.5627 25.7594 9.70531 25.7594C9.28303 25.7594 8.82236 25.7073 8.80956 25.1598C8.79676 24.6254 9.21904 24.4951 9.65412 24.4951C11.5224 24.4951 12.5461 24.469 14.4144 24.5212C14.6831 24.5342 15.1438 24.8731 15.1694 25.0947C15.2333 25.59 14.8111 25.7464 14.3504 25.7464C13.3779 25.7464 14.9646 25.7464 13.9921 25.7594ZM7.93941 25.1338C7.93941 24.7819 7.65789 24.4951 7.31238 24.4951C6.96688 24.4951 6.68536 24.7819 6.68536 25.1338C6.68536 25.4857 6.96688 25.7724 7.31238 25.7724C7.65789 25.7594 7.93941 25.4727 7.93941 25.1338ZM13.9921 29.2134C13.1347 29.2134 10.5627 29.2134 9.70531 29.2134C9.28303 29.2134 8.82236 29.1613 8.80956 28.6139C8.79676 28.0795 9.21904 27.9491 9.65412 27.9491C11.5224 27.9491 12.5461 27.9231 14.4144 27.9752C14.6831 27.9882 15.1438 28.3271 15.1694 28.5487C15.2333 29.044 14.8111 29.2004 14.3504 29.2004C13.3779 29.2004 14.9646 29.2134 13.9921 29.2134ZM7.93941 28.5878C7.93941 28.2359 7.65789 27.9491 7.31238 27.9491C6.96688 27.9491 6.68536 28.2359 6.68536 28.5878C6.68536 28.9397 6.96688 29.2265 7.31238 29.2265C7.65789 29.2134 7.93941 28.9397 7.93941 28.5878ZM13.9793 22.0447C13.1219 22.0447 10.5499 22.0447 9.69251 22.0447C9.27023 22.0447 8.80956 21.9926 8.79676 21.4451C8.78397 20.9107 9.20625 20.7804 9.64132 20.7804C11.5096 20.7804 15.0926 20.7543 16.9609 20.8065C17.2296 20.8195 17.6903 21.1584 17.7158 21.38C17.7798 21.8753 17.3575 22.0317 16.8969 22.0317C15.9244 22.0317 14.9518 22.0317 13.9793 22.0447C13.9793 22.0317 13.9793 22.0317 13.9793 22.0447ZM7.92661 21.406C7.92661 21.0541 7.64509 20.7674 7.29959 20.7674C6.95408 20.7674 6.67256 21.0541 6.67256 21.406C6.67256 21.758 6.95408 22.0447 7.29959 22.0447C7.64509 22.0447 7.92661 21.758 7.92661 21.406ZM23.7813 21.2105C24.1908 21.0411 24.5619 20.8847 24.9714 20.7022C25.0738 20.1939 25.2017 19.6725 25.2913 19.1381C25.3681 18.6559 25.6496 18.4082 26.1231 18.4082C26.9292 18.3952 27.7482 18.3691 28.5544 18.4082C29.1558 18.4343 29.3094 18.6037 29.4373 19.2294C29.5397 19.7116 29.6293 20.2069 29.7317 20.6892C30.1283 20.8586 30.4994 21.0281 30.9473 21.2236C31.28 20.989 31.6511 20.7283 32.0094 20.4806C32.662 20.0375 32.918 20.0375 33.481 20.5588C34.0056 21.0541 34.5175 21.5885 34.9782 22.149C35.4644 22.7355 35.4388 22.8528 34.991 23.5176C34.7478 23.8825 34.5303 24.2475 34.2872 24.6385C34.4279 25.0034 34.5687 25.3684 34.7222 25.7855C35.2085 25.8767 35.6948 25.968 36.1938 26.0722C36.7569 26.1895 36.9488 26.3459 36.9744 26.9194C37.0128 27.7797 37 28.653 36.9744 29.5132C36.9616 29.9564 36.7441 30.2301 36.2834 30.3083C35.7843 30.3865 35.2853 30.5168 34.7478 30.6211C34.6071 30.9861 34.4535 31.3771 34.3 31.8072C34.5687 32.2243 34.8374 32.6674 35.1317 33.0976C35.3749 33.4625 35.4132 33.8405 35.1061 34.1664C34.5175 34.792 33.9289 35.4176 33.3146 36.0172C32.9819 36.3561 32.6108 36.3561 32.2142 36.0563C31.8175 35.7695 31.408 35.4958 30.9473 35.196C30.5634 35.3655 30.1539 35.5349 29.7189 35.7174C29.6165 36.2388 29.5141 36.7471 29.4245 37.2685C29.3478 37.7116 29.1046 37.9723 28.6568 37.9853C27.7994 37.9984 26.9548 37.9984 26.0975 37.9853C25.6624 37.9853 25.3809 37.7768 25.3041 37.3076C25.2145 36.7992 25.0994 36.2909 24.9842 35.7435C24.6131 35.574 24.2292 35.3916 23.8069 35.196C23.3718 35.4958 22.924 35.7826 22.5017 36.0954C22.1306 36.3691 21.7851 36.3691 21.4652 36.0563C20.8254 35.4176 20.2111 34.7659 19.5969 34.1012C19.3282 33.8144 19.3538 33.4756 19.5713 33.1497C19.8656 32.7065 20.16 32.2504 20.4415 31.8202C20.2879 31.4031 20.1472 31.0382 20.0064 30.6472C19.4562 30.5299 18.9187 30.4126 18.3813 30.3083C18.023 30.2431 17.7798 30.0346 17.7798 29.6566C17.7542 28.7051 17.7542 27.7536 17.7798 26.8021C17.7926 26.3329 18.1125 26.1374 18.5348 26.0722C19.0211 25.994 19.4945 25.9028 19.9808 25.8246C20.1472 25.4075 20.3007 25.0295 20.4671 24.6254C20.1728 24.1693 19.8912 23.7131 19.5841 23.2699C19.3538 22.931 19.341 22.6182 19.6097 22.3184C20.2239 21.6537 20.8382 21.002 21.478 20.3633C21.7979 20.0505 22.169 20.0766 22.5273 20.3372C22.9112 20.637 23.3207 20.8977 23.7813 21.2105ZM21.9515 35.0266C22.4505 34.6747 22.86 34.401 23.2567 34.1012C23.5638 33.8666 23.8581 33.8535 24.2036 34.023C24.6643 34.2576 25.1377 34.4531 25.6112 34.6356C25.9055 34.7529 26.0591 34.9223 26.1103 35.2351C26.1871 35.7435 26.3022 36.2518 26.4046 36.8123C27.0444 36.8123 27.6586 36.8123 28.324 36.8123C28.4136 36.2909 28.5032 35.8217 28.58 35.3525C28.644 34.9745 28.8103 34.7399 29.1942 34.6095C29.6421 34.4661 30.0772 34.2706 30.4738 34.036C30.8705 33.8144 31.1904 33.8535 31.5359 34.1142C31.907 34.401 32.3037 34.6617 32.7516 34.9745C33.1867 34.5183 33.609 34.0751 34.044 33.632C33.7625 33.1888 33.5578 32.7978 33.3018 32.4589C32.9947 32.0679 32.9563 31.7029 33.1867 31.2598C33.3914 30.8818 33.545 30.4777 33.6729 30.0606C33.7881 29.6696 33.9928 29.4871 34.3767 29.435C34.863 29.3698 35.3365 29.2656 35.8355 29.1743C35.8355 28.5096 35.8355 27.884 35.8355 27.2192C35.3493 27.128 34.9142 27.0367 34.4791 26.9716C34.0312 26.9194 33.7497 26.7239 33.6346 26.2417C33.545 25.8506 33.353 25.4596 33.1611 25.1077C32.9563 24.7167 32.9563 24.3778 33.2251 24.0259C33.5066 23.6479 33.7625 23.2438 34.0824 22.7616C33.6218 22.3184 33.1739 21.9013 32.6876 21.4321C32.2781 21.7189 31.8814 21.9926 31.4848 22.2793C31.1776 22.5139 30.8833 22.54 30.5378 22.3575C30.1411 22.149 29.7317 21.9274 29.3094 21.8231C28.8359 21.6928 28.644 21.4191 28.58 20.9629C28.516 20.4937 28.4008 20.0375 28.3113 19.5813C27.633 19.5813 27.0316 19.5813 26.4046 19.5813C26.3022 20.1287 26.1871 20.611 26.1231 21.1063C26.0719 21.5233 25.8543 21.6928 25.4833 21.8101C25.0738 21.9404 24.6771 22.1099 24.306 22.3184C23.8709 22.553 23.5126 22.54 23.1287 22.2272C22.7832 21.9535 22.3993 21.7058 22.0154 21.4321C21.5292 21.9013 21.0941 22.3315 20.659 22.7485C21.0045 23.2699 21.286 23.7131 21.5804 24.1302C21.7723 24.4039 21.7851 24.6645 21.6315 24.9774C21.4268 25.3814 21.2349 25.7985 21.1197 26.2286C20.9917 26.6979 20.7358 26.9194 20.2751 26.9716C19.8145 27.0237 19.3666 27.128 18.8931 27.2062C18.8931 27.91 18.8931 28.5226 18.8931 29.1743C19.4178 29.2786 19.904 29.3829 20.3775 29.448C20.7742 29.5002 20.9661 29.7218 21.0941 30.0867C21.2221 30.4908 21.3628 30.9079 21.5676 31.2858C21.7979 31.716 21.7467 32.0548 21.478 32.4328C21.1965 32.8108 20.9661 33.2149 20.723 33.5798C21.1453 34.0882 21.542 34.5443 21.9515 35.0266ZM27.3771 23.7C29.5525 23.6088 31.8303 25.4727 31.8175 28.275C31.8047 30.8296 29.7956 32.7587 27.262 32.7326C24.8178 32.6935 22.8856 30.6472 22.924 28.1316C22.9624 25.6421 24.9458 23.674 27.3771 23.7ZM30.6146 28.2098C30.6146 26.3199 29.1686 24.8731 27.3131 24.8861C25.56 24.8992 24.0884 26.3981 24.0884 28.1707C24.0884 30.0346 25.56 31.5335 27.3771 31.5335C29.1942 31.5335 30.6146 30.0737 30.6146 28.2098Z" fill="#424242"/>
</svg>
