<svg width="120" height="120" viewBox="0 0 120 120" fill="none" xmlns="http://www.w3.org/2000/svg">
<mask id="mask0_2471_4251" style="mask-type:luminance" maskUnits="userSpaceOnUse" x="3" y="0" width="114" height="120">
<path d="M3 0H116.982V120H3V0Z" fill="white"/>
</mask>
<g mask="url(#mask0_2471_4251)">
<path d="M39.1063 96.637C39.1063 100.531 35.9205 104.071 31.6727 104.071C27.4249 104.071 24.239 100.885 24.239 96.637V64.7786C24.239 60.8848 27.4249 57.345 31.6727 57.345C35.9205 57.345 39.1063 60.5308 39.1063 64.7786V96.637ZM60.3452 105.133C60.3452 109.026 57.1594 112.566 52.9116 112.566C48.6638 112.566 45.832 109.38 45.832 105.133V56.637C45.832 52.7432 49.0178 49.2034 53.2656 49.2034C57.5134 49.2034 60.6992 52.3892 60.6992 56.637V105.133H60.3452ZM17.5134 89.5573C17.5134 93.4511 14.3275 96.991 10.0797 96.991C5.83196 96.991 2.64612 93.8051 2.64612 89.5573V72.2122C2.64612 68.3184 5.83196 64.7786 10.0797 64.7786C14.3275 64.7786 17.5134 68.3184 17.5134 72.2122V89.5573ZM81.5842 112.92C81.5842 116.814 78.3983 120.354 74.1505 120.354C70.2567 120.354 67.0709 116.814 67.0709 112.92V48.4954C67.0709 44.6016 70.2567 41.0618 74.5045 41.0618C78.3983 41.0618 81.9382 44.2476 81.9382 48.4954V112.92H81.5842Z" fill="#D27500"/>
</g>
<mask id="mask1_2471_4251" style="mask-type:luminance" maskUnits="userSpaceOnUse" x="3" y="0" width="114" height="120">
<path d="M3 0H116.982V120H3V0Z" fill="white"/>
</mask>
<g mask="url(#mask1_2471_4251)">
<path d="M104.947 109.734C103.531 109.734 102.469 109.38 101.053 109.026L92.2036 106.195C90.7877 105.841 89.7258 104.071 90.4337 102.655C90.7877 101.239 92.5576 100.177 93.9735 100.885L103.177 103.717C104.947 104.425 107.071 104.071 108.841 102.655C110.611 101.593 111.319 99.4688 111.319 97.6989V38.5839C111.319 35.752 109.549 33.2742 107.071 32.5662L20.3452 6.3715C18.5753 5.66354 16.4514 6.01752 14.6815 7.07946C13.2656 8.49539 12.2036 10.2653 12.2036 12.3892V53.0972C12.2036 54.8671 10.7877 55.929 9.37178 55.929C7.60186 55.929 6.53992 54.5131 6.53992 53.0972V12.3892C6.53992 8.49539 8.30983 4.95557 11.4957 2.83168C14.6815 0.353801 18.5753 -0.000181735 22.1151 1.06177L108.487 27.2565C113.443 28.6724 116.982 33.6281 116.982 38.9379V98.0529C116.982 101.947 115.212 105.487 112.027 107.964C109.903 108.672 107.425 109.734 104.947 109.734Z" fill="#D27500"/>
</g>
</svg>
