<svg width="120" height="120" viewBox="0 0 120 120" fill="none" xmlns="http://www.w3.org/2000/svg">
<path d="M49.8294 2.79248L49.2171 3.16314C48.2432 3.75278 47.3257 4.41204 46.4695 5.1324L48.2356 3.88912H63.225L65.95 24.5401L52.325 38.1764L38.7 47.6548V58.5844C38.7 66.218 42.6864 73.2966 49.2114 77.2495L63.555 85.9389L33.25 103.632H27.4051L16.5113 97.0321C9.98629 93.0792 6 86.0005 6 78.3669V41.6144C6 33.9784 9.98883 26.8978 16.5172 22.9457L49.2171 3.14973C49.4199 3.02705 49.624 2.90798 49.8294 2.79248Z" fill="url(#paint0_radial_2475_4370)"/>
<path d="M49.8294 2.79248L49.2171 3.16314C48.2432 3.75278 47.3257 4.41204 46.4695 5.1324L48.2356 3.88912H63.225L65.95 24.5401L52.325 38.1764L38.7 47.6548V58.5844C38.7 66.218 42.6864 73.2966 49.2114 77.2495L63.555 85.9389L33.25 103.632H27.4051L16.5113 97.0321C9.98629 93.0792 6 86.0005 6 78.3669V41.6144C6 33.9784 9.98883 26.8978 16.5172 22.9457L49.2171 3.14973C49.4199 3.02705 49.624 2.90798 49.8294 2.79248Z" fill="url(#paint1_linear_2475_4370)"/>
<path d="M82.3001 46.3582V58.5772C82.3001 66.2108 78.3136 73.2894 71.7886 77.2423L39.0886 97.0521C32.3993 101.105 24.0763 101.251 17.2693 97.491L49.2112 116.842C56.1507 121.046 64.8489 121.046 71.7886 116.842L104.489 97.0317C111.014 93.0788 115 86.0002 115 78.3665V69.54L112.275 65.4491L82.3001 46.3582Z" fill="url(#paint2_radial_2475_4370)"/>
<path d="M82.3001 46.3582V58.5772C82.3001 66.2108 78.3136 73.2894 71.7886 77.2423L39.0886 97.0521C32.3993 101.105 24.0763 101.251 17.2693 97.491L49.2112 116.842C56.1507 121.046 64.8489 121.046 71.7886 116.842L104.489 97.0317C111.014 93.0788 115 86.0002 115 78.3665V69.54L112.275 65.4491L82.3001 46.3582Z" fill="url(#paint3_linear_2475_4370)"/>
<path d="M104.483 22.9455L71.7828 3.14953C65.0611 -0.919754 56.6907 -1.04581 49.8667 2.77134L49.2171 3.16461C42.6888 7.11676 38.7 14.1971 38.7 21.8333V47.6985L49.2171 41.3314C56.1539 37.1322 64.8461 37.1322 71.7828 41.3314L104.483 61.1273C110.807 64.9561 114.748 71.7203 114.988 79.0815C114.996 78.8437 115 78.6056 115 78.3667V41.6142C115 33.9781 111.011 26.8976 104.483 22.9455Z" fill="url(#paint4_radial_2475_4370)"/>
<path d="M104.483 22.9455L71.7828 3.14953C65.0611 -0.919754 56.6907 -1.04581 49.8667 2.77134L49.2171 3.16461C42.6888 7.11676 38.7 14.1971 38.7 21.8333V47.6985L49.2171 41.3314C56.1539 37.1322 64.8461 37.1322 71.7828 41.3314L104.483 61.1273C110.807 64.9561 114.748 71.7203 114.988 79.0815C114.996 78.8437 115 78.6056 115 78.3667V41.6142C115 33.9781 111.011 26.8976 104.483 22.9455Z" fill="url(#paint5_linear_2475_4370)"/>
<defs>
<radialGradient id="paint0_radial_2475_4370" cx="0" cy="0" r="1" gradientTransform="matrix(-31.883 85.2191 -148.516 -55.6569 42.5657 23.5536)" gradientUnits="userSpaceOnUse">
<stop offset="0.06441" stop-color="#AE7FE2"/>
<stop offset="1" stop-color="#0078D4"/>
</radialGradient>
<linearGradient id="paint1_linear_2475_4370" x1="42.8199" y1="97.8178" x2="29.8311" y2="75.3714" gradientUnits="userSpaceOnUse">
<stop stop-color="#114A8B"/>
<stop offset="1" stop-color="#0078D4" stop-opacity="0"/>
</linearGradient>
<radialGradient id="paint2_radial_2475_4370" cx="0" cy="0" r="1" gradientTransform="matrix(83.7115 -12.3227 8.13318 55.3431 23.5215 93.6793)" gradientUnits="userSpaceOnUse">
<stop offset="0.133928" stop-color="#D59DFF"/>
<stop offset="1" stop-color="#5E438F"/>
</radialGradient>
<linearGradient id="paint3_linear_2475_4370" x1="105.072" y1="63.7494" x2="91.1549" y2="83.688" gradientUnits="userSpaceOnUse">
<stop stop-color="#493474"/>
<stop offset="1" stop-color="#8C66BA" stop-opacity="0"/>
</linearGradient>
<radialGradient id="paint4_radial_2475_4370" cx="0" cy="0" r="1" gradientTransform="matrix(-65.8314 -16.7061 28.0996 -110.913 106.975 66.8238)" gradientUnits="userSpaceOnUse">
<stop offset="0.0584996" stop-color="#50E6FF"/>
<stop offset="1" stop-color="#436DCD"/>
</radialGradient>
<linearGradient id="paint5_linear_2475_4370" x1="41.359" y1="2.87617" x2="61.8265" y2="2.87617" gradientUnits="userSpaceOnUse">
<stop stop-color="#2D3F80"/>
<stop offset="1" stop-color="#436DCD" stop-opacity="0"/>
</linearGradient>
</defs>
</svg>
